<svg width="56" height="147" viewBox="0 0 56 147" fill="none" xmlns="http://www.w3.org/2000/svg">
<path d="M72.6966 112.627C72.0167 112.896 71.4051 113.256 70.7879 113.614L72.2819 117.397C78.7874 115.033 86.0193 118.2 88.5623 124.639L91.6844 132.545L95.9971 130.842L92.0944 120.96C89.0768 113.319 80.3929 109.588 72.6966 112.627ZM53.0691 138.656L56.1912 146.562L68.133 141.846L65.0108 133.94C62.4241 127.39 65.6759 119.969 72.2694 117.365L67.5862 105.506C54.3953 110.716 47.8972 125.56 53.0691 138.656Z" fill="#EDEAE1"/>
<path d="M68.7161 114.199C69.396 113.93 70.0888 113.776 70.784 113.615L72.278 117.398C65.9129 120.118 62.796 127.371 65.339 133.81L68.4611 141.716L64.1485 143.419L60.2458 133.537C57.2322 125.894 61.0237 117.237 68.7161 114.199ZM50.5499 -6.57033L47.4277 -14.4762L35.486 -9.76016L38.6081 -1.85433C41.1948 4.69565 37.943 12.1165 31.3496 14.7204L36.0328 26.5792C49.2197 21.3714 55.7217 6.52568 50.5499 -6.57033Z" fill="#DBCEC6"/>
<path d="M35.2309 17.7571C34.551 18.0256 33.8582 18.1804 33.163 18.3407L31.6691 14.5578C38.0326 11.8345 41.151 4.58511 38.608 -1.85419L35.4859 -9.76002L39.7985 -11.4631L43.7012 -1.58086C46.7188 6.06012 42.9233 14.7193 35.2309 17.7571ZM3.11482 12.1627L-0.00732422 4.25684L11.9344 -0.45916L15.0566 7.44667C17.6433 13.9967 25.0881 17.1933 31.6815 14.5894L36.3648 26.4482C23.1739 31.6575 8.28665 25.2587 3.11482 12.1627Z" fill="#EDEAE1"/>
<path d="M31.2504 19.3286C31.9303 19.0601 32.5419 18.6997 33.1591 18.3418L31.6651 14.5588C25.1619 16.9169 17.9316 13.7543 15.3886 7.31501L12.2665 -0.590823L7.95386 1.1123L11.8565 10.9946C14.8741 18.6356 23.558 22.3664 31.2504 19.3286ZM39.1549 34.4846L43.8381 46.3433C50.4315 43.7395 57.8764 46.9361 60.4631 53.4861L66.7073 69.2978C69.294 75.8477 66.0423 83.2686 59.4488 85.8725L64.132 97.7312C77.3229 92.522 83.8209 77.6778 78.6491 64.5818L72.4048 48.7701C67.233 35.6741 52.3457 29.2753 39.1549 34.4846Z" fill="#DBCEC6"/>
<path d="M44.5975 41.4749C43.9176 41.7434 43.3059 42.1038 42.6848 42.4633L44.1788 46.2463C50.6844 43.8827 57.9162 47.0492 60.4592 53.4885L66.7035 69.3002C69.2465 75.7395 66.1281 82.9889 59.7645 85.7122L61.2585 89.4951C61.9576 89.3332 62.6504 89.1784 63.3303 88.9099C71.0227 85.8721 74.8142 77.2145 71.7967 69.5735L63.9913 49.8089C60.9777 42.1664 52.2938 38.4355 44.5975 41.4749Z" fill="#EDEAE1"/>
<path d="M36.9115 62.7876C34.3248 56.2377 37.5765 48.8168 44.17 46.2129L39.4868 34.3541C26.2959 39.5634 19.7979 54.4076 24.9697 67.5036L31.214 83.3153C36.3858 96.4113 51.273 102.81 64.4639 97.6008L59.7807 85.742C53.1872 88.3459 45.7424 85.1493 43.1557 78.5993L36.9115 62.7876Z" fill="#EDEAE1"/>
<path d="M40.6168 43.0466C32.9245 46.0845 29.133 54.7421 32.1505 62.3831L39.9559 82.1476C42.9734 89.7886 51.6573 93.5195 59.3497 90.4816C60.0296 90.2131 60.6412 89.8528 61.2584 89.4948L59.7645 85.7119C53.2589 88.0754 46.027 84.9089 43.484 78.4696L37.2397 62.6579C34.6967 56.2186 37.8152 48.9692 44.1787 46.246L42.6848 42.463C41.9935 42.6218 41.3007 42.7766 40.6168 43.0466Z" fill="#DBCEC6"/>
<path d="M83.1313 122.215C83.9593 124.311 83.9205 126.651 83.0234 128.719C82.1263 130.788 80.4443 132.415 78.3476 133.243C76.2508 134.071 73.911 134.032 71.8429 133.135C69.7747 132.238 68.1476 130.556 67.3196 128.459L48.5867 81.024C47.7587 78.9272 47.7975 76.5874 48.6946 74.5193C49.5917 72.4511 51.2737 70.8241 53.3704 69.996C55.4672 69.168 57.807 69.2068 59.8752 70.1039C61.9433 71.001 63.5704 72.683 64.3984 74.7797L83.1313 122.215Z" fill="#DBCEC6"/>
<path d="M48.5867 81.024L67.3196 128.459C68.1476 130.556 69.7747 132.238 71.8429 133.135C73.911 134.032 76.2508 134.071 78.3476 133.243L53.3704 69.996C51.2737 70.8241 49.5917 72.4511 48.6946 74.5193C47.7975 76.5874 47.7587 78.9272 48.5867 81.024Z" fill="#F4F4ED"/>
<path d="M55.0321 51.0624C55.8602 53.1591 55.8214 55.4989 54.9243 57.5671C54.0271 59.6352 52.3452 61.2623 50.2484 62.0903C48.1517 62.9184 45.8119 62.8796 43.7437 61.9824C41.6756 61.0853 40.0485 59.4034 39.2205 57.3066L20.4876 9.87165C19.6596 7.77489 19.6984 5.43508 20.5955 3.36693C21.4926 1.29878 23.1746 -0.328278 25.2713 -1.15632C27.3681 -1.98437 29.7079 -1.94556 31.776 -1.04845C33.8442 -0.15133 35.4712 1.53061 36.2993 3.62737L55.0321 51.0624Z" fill="#DBCEC6"/>
<path d="M20.4876 9.87165L39.2205 57.3066C40.0485 59.4034 41.6756 61.0853 43.7437 61.9824C45.8119 62.8796 48.1517 62.9184 50.2484 62.0903L25.2713 -1.15632C23.1746 -0.328278 21.4926 1.29878 20.5955 3.36693C19.6984 5.43508 19.6596 7.77489 20.4876 9.87165Z" fill="#F4F4ED"/>
</svg>
