<svg width="83" height="80" viewBox="0 0 83 80" fill="none" xmlns="http://www.w3.org/2000/svg">
<g opacity="0.3">
<path fill-rule="evenodd" clip-rule="evenodd" d="M68.1457 9.81522C68.2617 9.91432 68.3649 10.022 68.4552 10.1363L68.1457 9.81522Z" fill="white"/>
<path d="M74.1648 16.2216L73.5953 15.4677L72.7969 15.9895C67.3091 19.5759 60.5681 25.5895 54.4212 32.3396C48.7316 38.5875 43.4958 45.5267 40.2189 51.8339C35.4157 45.2442 30.7239 39.2705 23.5979 33.5999C22.4819 32.7118 21.2377 32.4195 20.071 32.6069C18.9295 32.7903 17.9381 33.4192 17.2475 34.2438C16.5567 35.0685 16.1238 36.1402 16.1676 37.2649C16.2124 38.4141 16.7535 39.5427 17.8689 40.4303C25.9063 46.8251 31.8206 52.9999 36.863 60.6504C38.8887 63.7225 43.6129 63.3184 45.0685 59.9646C47.7229 53.8467 52.4393 46.4253 57.7639 39.4929C62.7645 32.9824 68.2573 26.9607 73.009 22.8967C78.8566 33.2263 79.5277 46.3393 72.4966 57.9884C58.3071 81.5032 23.6563 81.3525 9.65814 57.7245C-4.34536 34.0913 13.1604 4.55353 41.1568 4.55353C50.586 4.55353 58.8127 7.89725 65.0522 13.2332C65.9921 14.0395 67.4158 13.9746 68.2756 13.092L68.2964 13.0717L68.3085 13.059C69.0907 12.2406 69.1371 10.9995 68.4559 10.1371L68.4552 10.1363L68.1457 9.81522C60.972 3.6757 51.4669 -0.129856 40.6021 0.00338839C9.10253 0.392752 -10.1393 33.4225 5.60781 59.9995C21.4088 86.6669 60.9075 86.6668 76.7085 59.9994C85.2295 45.6135 83.5975 28.7077 74.1648 16.2216Z" fill="white"/>
</g>
</svg>
