<svg width="66" height="60" viewBox="0 0 66 60" fill="none" xmlns="http://www.w3.org/2000/svg">
<path opacity="0.3" fill-rule="evenodd" clip-rule="evenodd" d="M61.3979 0.123095C63.5855 0.544676 65.4451 2.40721 65.869 4.60141C66.0482 5.52836 66.0482 43.221 65.869 44.148C65.435 46.3941 63.5868 48.208 61.2981 48.6339C60.921 48.7042 59.2152 48.7616 57.5078 48.7616H54.4031V53.5995C54.4031 58.2901 54.3948 58.4542 54.1299 58.9913C53.9266 59.4034 53.7226 59.6049 53.3334 59.7784C52.5983 60.106 52.1221 60.0748 51.4653 59.6554C51.1537 59.4564 48.4906 56.924 45.5472 54.0277L40.1958 48.7616H23.169C12.1203 48.7616 5.90126 48.7168 5.45627 48.6339C3.16764 48.208 1.3194 46.3941 0.885376 44.148C0.706215 43.221 0.706215 5.52836 0.885376 4.60141C1.3194 2.35531 3.16764 0.541424 5.45627 0.115466C6.30928 -0.0433611 60.5729 -0.0359824 61.3979 0.123095ZM5.59428 3.99136C5.27048 4.15344 4.99982 4.41907 4.83467 4.73685C4.58083 5.22509 4.57816 5.43456 4.57816 24.3747C4.57816 43.3148 4.58083 43.5243 4.83467 44.0125C4.99982 44.3303 5.27048 44.5959 5.59428 44.758C6.09113 45.0068 6.30929 45.0098 23.7576 45.0098C39.7306 45.0098 41.4569 45.029 41.8258 45.2109C42.0501 45.3215 44.1116 47.2479 46.4069 49.4917L50.5802 53.5713V50.036C50.5802 46.7395 50.5975 46.4672 50.8367 46.007C51.0019 45.6892 51.2725 45.4236 51.5963 45.2615C52.0707 45.024 52.3411 45.0098 56.3782 45.0098C60.4153 45.0098 60.6857 44.9955 61.1601 44.758C61.4839 44.5959 61.7546 44.3303 61.9198 44.0125C62.1736 43.5243 62.1763 43.3148 62.1763 24.3747C62.1763 5.44219 62.1735 5.22496 61.92 4.73735C61.7634 4.43608 61.4785 4.14844 61.1873 3.99749C60.7173 3.75399 60.3396 3.75062 33.404 3.74511C6.28215 3.73961 6.0938 3.74136 5.59428 3.99136ZM35.7984 7.68304C39.4545 8.18403 42.8009 9.84097 45.4935 12.4836C51.3064 18.1884 52.2136 26.9603 47.6865 33.6874C46.5673 35.3504 44.5608 37.3196 42.8662 38.418C37.0989 42.1564 29.6555 42.1564 23.8882 38.418C22.1936 37.3196 20.1871 35.3504 19.0679 33.6874C15.2588 28.0272 15.2588 20.7222 19.0679 15.062C20.1879 13.3977 22.1946 11.4284 23.8837 10.3361C27.4325 8.04096 31.6146 7.10976 35.7984 7.68304ZM31.5539 11.3777C26.2705 12.153 22.0008 15.8059 20.5286 20.8104C18.4984 27.7121 22.634 34.9695 29.7455 36.9845C36.7778 38.9769 44.1727 34.9182 46.2258 27.9389C48.6433 19.7208 42.2817 11.3621 33.5291 11.2562C32.9468 11.249 32.0579 11.3038 31.5539 11.3777ZM40.034 19.0048C40.572 19.2836 41.023 20.0214 41.023 20.6229C41.023 20.8347 40.9075 21.2302 40.7665 21.5015C40.478 22.0564 39.7438 22.4988 39.1115 22.4988C38.1419 22.4988 37.2001 21.5744 37.2001 20.6229C37.2001 20.0023 37.6508 19.2818 38.2162 18.9987C38.8441 18.6844 39.4192 18.6863 40.034 19.0048ZM28.5653 19.0048C29.1034 19.2836 29.5543 20.0214 29.5543 20.6229C29.5543 21.2434 29.1036 21.9639 28.5382 22.247C28.2617 22.3855 27.8588 22.4988 27.6429 22.4988C26.6733 22.4988 25.7314 21.5744 25.7314 20.6229C25.7314 20.0023 26.1822 19.2818 26.7476 18.9987C27.3754 18.6844 27.9505 18.6863 28.5653 19.0048ZM34.3966 26.0204C36.2609 26.1921 38.2502 27.0365 39.6574 28.2533C40.3967 28.8926 40.6407 29.3266 40.6407 30.0024C40.6407 31.2273 39.5642 32.0782 38.3467 31.8158C38.1254 31.7681 37.6478 31.4937 37.2855 31.2062C35.9057 30.111 34.9019 29.7326 33.3772 29.7326C31.8525 29.7326 30.8488 30.111 29.4689 31.2062C29.1067 31.4937 28.6291 31.7681 28.4077 31.8158C27.1729 32.082 26.1137 31.2273 26.1137 29.9647C26.1137 29.269 26.4527 28.7606 27.4333 27.9853C29.3312 26.4847 31.8181 25.7829 34.3966 26.0204Z" fill="white"/>
</svg>
