<svg width="16" height="16" viewBox="0 0 16 16" fill="none" xmlns="http://www.w3.org/2000/svg">
<g clip-path="url(#clip0_8092_34605)">
<path fill-rule="evenodd" clip-rule="evenodd" d="M7.42811 0.94411C7.68351 0.50561 8.317 0.505608 8.5724 0.94411L10.8145 4.79357L15.1684 5.73639C15.6644 5.84379 15.8601 6.44627 15.522 6.82468L12.5538 10.1466L13.0026 14.5788C13.0537 15.0836 12.5412 15.456 12.0768 15.2514L8.00026 13.455L3.9237 15.2514C3.45933 15.456 2.94683 15.0836 2.99794 14.5788L3.4467 10.1466L0.478492 6.82468C0.140377 6.44628 0.336133 5.84379 0.832098 5.73639L5.186 4.79357L7.42811 0.94411ZM8.00026 2.039L6.00437 5.46572C5.91082 5.62635 5.75404 5.74025 5.57236 5.77959L1.69659 6.61888L4.33884 9.57599C4.46269 9.71461 4.52258 9.89891 4.50385 10.0839L4.10438 14.0293L7.73326 12.4302C7.90337 12.3552 8.09715 12.3552 8.26726 12.4302L11.8961 14.0293L11.4967 10.0839C11.4779 9.89891 11.5378 9.71461 11.6617 9.57599L14.3039 6.61888L10.4282 5.77959C10.2465 5.74025 10.0897 5.62635 9.99614 5.46572L8.00026 2.039Z" fill="#E8C51A"/>
</g>
<defs>
<clipPath id="clip0_8092_34605">
<rect width="16" height="16" fill="white"/>
</clipPath>
</defs>
</svg>
