<svg width="16" height="16" viewBox="0 0 16 16" fill="none" xmlns="http://www.w3.org/2000/svg">
<path d="M7.99992 4.37053C10.5341 4.37053 12.2622 6.29987 13.0899 7.49568C13.3007 7.80021 13.3007 8.20012 13.0899 8.50465C12.2617 9.70122 10.5339 11.6298 7.99992 11.6298C5.46708 11.6298 3.73958 9.71312 2.91121 8.52303C2.69967 8.21912 2.69878 7.81931 2.90868 7.51427C3.73593 6.31206 5.46463 4.37053 7.99992 4.37053ZM7.99992 3.3335C4.37343 3.3335 2.22647 6.45485 1.55906 7.60376C1.40773 7.86425 1.4084 8.17904 1.56087 8.43886C2.23035 9.57972 4.3767 12.6668 7.99992 12.6668C11.6248 12.6668 13.7714 9.56259 14.4399 8.41771C14.5918 8.15755 14.5918 7.84277 14.4399 7.58262C13.7714 6.43774 11.6248 3.3335 7.99992 3.3335Z" fill="#999999"/>
<path d="M8.00005 6.88894C8.61269 6.88894 9.11117 7.38742 9.11117 8.00005C9.11117 8.61269 8.61269 9.11117 8.00005 9.11117C7.38742 9.11117 6.88894 8.61269 6.88894 8.00005C6.88894 7.38742 7.38742 6.88894 8.00005 6.88894ZM8.00005 5.77783C6.77283 5.77783 5.77783 6.77283 5.77783 8.00005C5.77783 9.22742 6.77283 10.2223 8.00005 10.2223C9.22742 10.2223 10.2223 9.22742 10.2223 8.00005C10.2223 6.77283 9.22742 5.77783 8.00005 5.77783Z" fill="#999999"/>
</svg>
