<svg width="12" height="11" viewBox="0 0 12 11" fill="none" xmlns="http://www.w3.org/2000/svg">
<path d="M11.4971 8.6875C11.4971 8.82812 11.471 9.01302 11.4189 9.24219C11.3669 9.46615 11.3122 9.64323 11.2549 9.77344C11.1455 10.0339 10.8278 10.3099 10.3018 10.6016C9.81217 10.8672 9.3278 11 8.84863 11C8.70801 11 8.56999 10.9922 8.43457 10.9766C8.30436 10.9557 8.15592 10.9219 7.98926 10.875C7.82259 10.8281 7.69759 10.7917 7.61426 10.7656C7.53613 10.7344 7.3929 10.6797 7.18457 10.6016C6.97624 10.5234 6.84863 10.4766 6.80176 10.4609C6.29134 10.2786 5.83561 10.0625 5.43457 9.8125C4.7679 9.40104 4.0778 8.84115 3.36426 8.13281C2.65592 7.41927 2.09603 6.72917 1.68457 6.0625C1.43457 5.66146 1.21842 5.20573 1.03613 4.69531C1.02051 4.64844 0.973633 4.52083 0.895508 4.3125C0.817383 4.10417 0.762695 3.96094 0.731445 3.88281C0.705404 3.79948 0.668945 3.67448 0.62207 3.50781C0.575195 3.34115 0.541341 3.19271 0.520508 3.0625C0.504883 2.92708 0.49707 2.78906 0.49707 2.64844C0.49707 2.16927 0.629883 1.6849 0.895508 1.19531C1.18717 0.66927 1.46322 0.351562 1.72363 0.242187C1.85384 0.184895 2.03092 0.130208 2.25488 0.0781245C2.48405 0.0260411 2.66895 -5.96046e-07 2.80957 -5.96046e-07C2.88249 -5.96046e-07 2.93717 0.00781194 2.97363 0.023437C3.06738 0.0546872 3.2054 0.252604 3.3877 0.617187C3.44499 0.716145 3.52311 0.85677 3.62207 1.03906C3.72103 1.22135 3.81217 1.38802 3.89551 1.53906C3.97884 1.6849 4.05957 1.82292 4.1377 1.95312C4.15332 1.97396 4.19759 2.03906 4.27051 2.14844C4.34863 2.25781 4.40592 2.35156 4.44238 2.42969C4.47884 2.5026 4.49707 2.57552 4.49707 2.64844C4.49707 2.7526 4.42155 2.88281 4.27051 3.03906C4.12467 3.19531 3.96322 3.33854 3.78613 3.46875C3.61426 3.59896 3.4528 3.73698 3.30176 3.88281C3.15592 4.02865 3.08301 4.14844 3.08301 4.24219C3.08301 4.28906 3.09603 4.34896 3.12207 4.42187C3.14811 4.48958 3.16895 4.54167 3.18457 4.57812C3.2054 4.61458 3.24186 4.67708 3.29395 4.76562C3.35124 4.85417 3.38249 4.90365 3.3877 4.91406C3.78353 5.6276 4.23665 6.23958 4.74707 6.75C5.25749 7.26042 5.86947 7.71354 6.58301 8.10937C6.59342 8.11458 6.6429 8.14583 6.73145 8.20312C6.81999 8.25521 6.88249 8.29167 6.91895 8.3125C6.9554 8.32812 7.00749 8.34896 7.0752 8.375C7.14811 8.40104 7.20801 8.41406 7.25488 8.41406C7.34863 8.41406 7.46842 8.34115 7.61426 8.19531C7.76009 8.04427 7.89811 7.88281 8.02832 7.71094C8.15853 7.53385 8.30176 7.3724 8.45801 7.22656C8.61426 7.07552 8.74447 7 8.84863 7C8.92155 7 8.99447 7.01823 9.06738 7.05469C9.14551 7.09115 9.23926 7.14844 9.34863 7.22656C9.45801 7.29948 9.52311 7.34375 9.54395 7.35937C9.67415 7.4375 9.81217 7.51823 9.95801 7.60156C10.1091 7.6849 10.2757 7.77604 10.458 7.875C10.6403 7.97396 10.7809 8.05208 10.8799 8.10937C11.2445 8.29167 11.4424 8.42969 11.4736 8.52344C11.4893 8.5599 11.4971 8.61458 11.4971 8.6875Z" fill="#18BA9B"/>
</svg>
