<svg width="115" height="78" viewBox="0 0 115 78" fill="none" xmlns="http://www.w3.org/2000/svg">
<path d="M100.78 65.7821C100.649 64.9909 100.404 64.3562 100.403 63.7213C100.38 51.5699 100.403 39.4183 100.368 27.2669C100.362 25.3281 100.024 23.3902 100.01 21.4511C99.9612 15.1231 100.023 8.79441 99.9621 2.46649C99.9511 1.32422 100.345 0.928038 101.828 0.963601C105.177 1.04386 108.531 1.03221 111.881 0.971893C113.77 0.937886 114.896 1.36948 114.957 3.55393C115.041 6.57728 114.978 9.60322 114.978 12.628C114.978 16.1401 114.978 19.6522 114.978 23.1643C114.978 26.1548 114.978 29.1454 114.978 32.1359C114.978 36.2395 114.978 40.3431 114.978 44.4468C114.978 48.2196 115.023 51.9928 114.968 55.7652C114.873 62.2249 114.655 68.6839 114.628 75.1436C114.621 76.6484 113.29 76.618 112.264 76.6978C109.441 76.9172 106.596 76.9899 103.758 77.0372C101.306 77.0781 100.508 75.9815 100.71 74.0208C100.909 72.0827 100.488 70.1082 100.433 68.1479C100.412 67.4139 100.656 66.6752 100.78 65.7821ZM101.963 14.6048C101.963 18.376 101.931 22.1474 101.969 25.9184C102.084 37.0832 102.229 48.2479 102.355 59.4126C102.375 61.1506 102.358 62.8889 102.358 64.627C102.358 67.8768 102.406 71.1274 102.33 74.3762C102.305 75.4356 102.657 75.9174 104.067 75.808C105.912 75.6648 107.773 75.6408 109.615 75.4744C113.01 75.1677 113.006 75.14 113.006 72.4001C113.006 59.0891 113.006 45.7781 113.006 32.4672C113.006 23.9178 112.996 15.3685 113.023 6.81925C113.026 6.02812 113.23 5.23184 113.409 4.44785C113.751 2.94856 113.384 2.55931 111.498 2.55529C108.87 2.54969 106.242 2.58249 103.616 2.54278C102.122 2.52019 101.514 3.03313 101.556 4.20292C101.61 5.7313 101.518 7.26313 101.582 8.79107C101.658 10.626 101.832 12.4583 101.963 14.6048Z" fill="#111111"/>
<path d="M67.6287 15.7398C68.5436 15.6361 69.2451 15.4717 69.9573 15.4394C72.8148 15.3099 75.6754 15.2193 78.5351 15.1186C79.8722 15.0715 80.5342 15.5177 80.567 16.5522C80.6774 20.0324 80.912 23.5114 80.944 26.9917C80.9634 29.0896 80.6444 31.1881 80.5823 33.2881C80.5592 34.0714 80.9521 34.8593 80.9549 35.6455C80.9846 43.7786 80.9245 51.9121 80.9913 60.045C81.0318 64.9756 81.2629 69.9053 81.3831 74.8358C81.4197 76.3371 80.5262 76.9947 78.4543 77.0082C75.329 77.0286 72.2012 76.9629 69.0788 77.036C67.632 77.0699 67.1897 76.7355 67.1826 75.6457C67.0869 60.9407 66.9486 46.2359 66.7789 31.5314C66.7531 29.2942 66.4549 27.0593 66.3939 24.8218C66.3238 22.249 66.3269 19.6733 66.4246 17.1015C66.442 16.641 67.0726 16.1934 67.6287 15.7398ZM68.4627 32.3801C68.4627 37.3219 68.4164 42.2641 68.4727 47.2056C68.5765 56.303 68.7408 65.4001 68.8793 74.4974C68.8825 74.7047 68.765 74.9875 68.903 75.104C69.217 75.3692 69.6608 75.7449 70.0415 75.7384C72.6264 75.694 75.2075 75.5342 77.7924 75.4696C79.175 75.435 79.8088 74.9528 79.7134 73.955C79.6133 72.9075 79.3432 71.8647 79.3211 70.8178C79.1529 62.8272 78.9713 54.8362 78.9149 46.8449C78.8917 43.5535 79.2647 40.261 79.2748 36.9687C79.2833 34.1952 78.9591 31.422 78.905 28.6473C78.8353 25.0717 78.8542 21.4944 78.9113 17.9185C78.926 16.9917 78.5403 16.5971 77.272 16.6658C74.8998 16.7942 72.5231 16.9597 70.1488 16.9544C68.7054 16.9512 68.4168 17.3906 68.4431 18.3324C68.5045 20.5262 68.4627 22.7216 68.4627 24.9163C68.4627 27.3005 68.4627 29.6848 68.4627 32.3801Z" fill="#111111"/>
<path d="M47.3033 55.4217C47.4375 60.9766 47.5768 66.3727 47.7019 71.769C47.7293 72.9486 47.5577 74.1435 47.7425 75.3052C47.9865 76.838 46.4954 76.9121 45.4388 76.9545C42.2971 77.0805 39.1405 77.0443 35.993 76.976C34.8578 76.9513 33.9496 76.5981 33.9876 75.3984C34.0758 72.6178 34.0421 69.834 34.0111 67.0518C33.8882 56.039 33.7438 45.0264 33.6165 34.0137C33.5946 32.1193 33.8349 31.9414 36.1954 31.9402C39.0102 31.9387 41.8262 31.9793 44.6392 31.9243C46.2171 31.8935 46.9073 32.3432 46.9276 33.6329C46.9586 35.5971 47.2645 37.559 47.2848 39.5229C47.339 44.7693 47.3033 50.0163 47.3033 55.4217ZM45.6926 46.6953C45.5584 45.0474 45.3537 43.4008 45.3069 41.7513C45.2404 39.4083 45.2775 37.0632 45.2958 34.7191C45.3039 33.691 44.71 33.158 43.3968 33.2142C41.3716 33.3007 39.3445 33.5359 37.326 33.4905C35.6674 33.4531 35.1527 33.8195 35.1869 35.1634C35.3949 43.3307 35.5192 51.4995 35.616 59.6682C35.6726 64.4437 35.6445 69.2201 35.6099 73.996C35.6035 74.8725 35.8195 75.6895 37.0342 75.6958C39.3926 75.7082 41.7547 75.4176 44.1112 75.4483C45.7058 75.4691 46.1863 75.0932 46.1257 73.8417C45.9131 69.4471 45.7727 65.0493 45.7076 60.6518C45.6403 56.106 45.6926 51.5591 45.6926 46.6953Z" fill="#111111"/>
<path d="M0.00165939 58.9295C0.00165939 55.0148 -0.0030475 51.2589 0.00339338 47.5031C0.00748032 45.1157 1.03809 44.3229 4.10626 44.3229C7.01365 44.3229 9.92207 44.3597 12.828 44.3087C14.4788 44.2797 15.0432 44.8315 15.0384 46.09C15.0016 55.7177 15.0226 65.3455 15.0142 74.9732C15.0127 76.6909 14.5581 77.028 12.3859 77.0286C9.07286 77.0295 5.7595 77.009 2.44686 77.0381C1.02469 77.0507 0.414646 76.5854 0.393269 75.4616C0.289527 70.0035 0.13696 64.546 0.00165939 58.9295ZM12.3802 75.4412C12.7184 75.0836 13.3296 74.7312 13.341 74.3674C13.3692 73.4618 12.9933 72.549 13.0156 71.6426C13.0655 69.6213 13.3592 67.6026 13.3762 65.582C13.4276 59.4435 13.3832 53.3045 13.4053 47.1658C13.4094 46.0431 12.7867 45.5331 11.3609 45.5915C8.64407 45.7028 5.92232 45.7662 3.21388 45.9506C2.78925 45.9795 2.11557 46.5209 2.08076 46.8583C1.84925 49.1021 1.64883 51.3551 1.6547 53.6048C1.66129 56.1377 1.97204 58.6694 2.01344 61.203C2.07908 65.2242 2.03092 69.2467 2.03092 73.2686C2.03092 75.7095 2.03055 75.7069 5.12483 75.445C5.45912 75.4167 5.80102 75.4339 6.13887 75.4424C8.15174 75.4929 10.1645 75.547 12.3802 75.4412Z" fill="#111111"/>
</svg>
