<svg width="153" height="46" viewBox="0 0 153 46" fill="none" xmlns="http://www.w3.org/2000/svg">
<path fill-rule="evenodd" clip-rule="evenodd" d="M20.8228 4.72901C22.1354 5.42324 22.8641 6.82983 23.4795 8.19585L27.2899 16.7806C27.8197 17.9745 28.8104 20.0354 27.5128 19.8857C24.9477 16.6947 21.3185 10.2369 20.3334 6.26299C19.5358 5.79678 18.324 8.71689 17.135 11.1104C15.9459 13.504 12.7551 17.1191 11.9574 17.5052C11.1596 17.8914 11.1596 18.2902 8.76649 18.2899C6.37335 18.2895 4.77792 18.229 4.37906 19.2568C3.9802 20.2845 8.70437 24.1319 10.3619 25.0704C12.2547 26.1422 11.5176 28.1774 10.8753 30.2556C10.233 32.3337 9.85275 35.8458 8.36764 37.435C11.0051 37.2422 17.1425 33.8457 18.3391 33.0476C19.5356 32.2495 19.9345 32.316 20.7322 32.0837C21.5299 31.8514 23.435 31.72 24.7208 33.0476C26.0066 34.3752 28.9463 36.6926 30.7207 37.2096C31.2054 35.7914 29.5071 31.0537 29.2426 29.2599C28.9781 27.4661 29.9059 26.6663 31.1025 25.4697C32.2991 24.2731 32.8763 24.0965 33.4957 23.8743L39.4785 20.529L31.1025 18.6891C30.326 18.367 29.0104 18.3132 29.2426 17.5052C29.4885 16.6495 30.7042 16.6871 31.5663 16.9096L42.332 19.6881C39.6469 22.8003 33.9602 24.7385 32.3405 26.6995C30.7207 28.6605 30.7762 30.1747 31.456 32.0837L33.3054 37.2772C33.8815 38.8954 31.405 40.0891 29.849 39.3618C28.2929 38.6344 27.3775 37.0092 26.0323 35.9412C23.8591 34.2159 20.7319 34.1308 18.1049 35.0242C15.4779 35.9176 13.2334 37.65 11.0426 39.3529C9.63018 40.4508 7.42983 38.9742 7.13574 37.2096C6.87625 35.6526 7.54594 34.1335 8.25658 32.6984L8.54091 32.1289C9.34079 30.5288 10.0812 28.6823 9.47538 26.9991C8.97087 25.5973 7.66355 24.6856 6.38331 23.8986L5.63383 23.4389C4.44262 22.6921 3.27338 21.8247 2.78393 20.529C2.22456 19.0482 3.19485 16.9547 4.77314 17.0753C10.8518 17.5395 16.7858 12.3493 17.135 6.26299C17.2257 4.6817 19.4227 3.98851 20.8228 4.72901Z" fill="#111111"/>
<path fill-rule="evenodd" clip-rule="evenodd" d="M74.0043 4.7704C75.3283 5.47068 76.0634 6.88953 76.6841 8.26745L80.5277 16.927C81.0621 18.1314 82.0615 20.2101 80.7526 20.0592C78.1651 16.8403 74.5043 10.3263 73.5106 6.31775C72.706 5.84747 71.4837 8.79304 70.2843 11.2074C69.0849 13.6218 65.8662 17.2685 65.0616 17.658C64.2569 18.0475 64.2569 18.4498 61.8429 18.4494C59.4289 18.449 57.8195 18.388 57.4172 19.4248C57.0149 20.4615 61.7802 24.3424 63.4522 25.2891C65.3615 26.3702 64.6179 28.4232 63.97 30.5194C63.3221 32.6157 62.9386 36.1584 61.4406 37.7614C64.101 37.567 70.2919 34.1408 71.4989 33.3358C72.7059 32.5307 73.1082 32.5978 73.9129 32.3635C74.7176 32.1292 76.6392 31.9966 77.9362 33.3358C79.2332 34.6749 82.1986 37.0125 83.9884 37.5341C84.4773 36.1035 82.7642 31.3245 82.4974 29.5151C82.2306 27.7056 83.1666 26.8988 84.3736 25.6918C85.5806 24.4848 86.1629 24.3066 86.7876 24.0825L92.8226 20.7081L84.3736 18.8522C83.5903 18.5272 82.2632 18.473 82.4974 17.658C82.7455 16.7948 83.9718 16.8327 84.8414 17.0571L95.7009 19.8598C92.9924 22.9992 87.2562 24.9543 85.6223 26.9324C83.9884 28.9105 84.0444 30.4378 84.7301 32.3635L86.5956 37.6023C87.1768 39.2345 84.6787 40.4386 83.1091 39.705C81.5395 38.9713 80.6161 37.3319 79.2591 36.2546C77.067 34.5142 73.9126 34.4284 71.2627 35.3296C68.6128 36.2308 66.3487 37.9783 64.1388 39.696C62.7141 40.8035 60.4946 39.314 60.1979 37.534C59.9362 35.9635 60.6117 34.4312 61.3285 32.9835L61.6153 32.4091C62.4222 30.795 63.169 28.9325 62.5579 27.2345C62.049 25.8206 60.7303 24.901 59.4389 24.1071L58.6829 23.6433C57.4813 22.89 56.3019 22.015 55.8082 20.7081C55.2439 19.2144 56.2227 17.1027 57.8147 17.2243C63.9463 17.6925 69.932 12.4571 70.2843 6.31775C70.3758 4.72268 72.592 4.02344 74.0043 4.7704Z" fill="#111111"/>
<path fill-rule="evenodd" clip-rule="evenodd" d="M127.004 4.7704C128.328 5.47068 129.063 6.88953 129.684 8.26745L133.528 16.927C134.062 18.1314 135.061 20.2101 133.753 20.0592C131.165 16.8403 127.504 10.3263 126.511 6.31775C125.706 5.84747 124.484 8.79304 123.284 11.2074C122.085 13.6218 118.866 17.2685 118.062 17.658C117.257 18.0475 117.257 18.4498 114.843 18.4494C112.429 18.449 110.82 18.388 110.417 19.4248C110.015 20.4615 114.78 24.3424 116.452 25.2891C118.361 26.3702 117.618 28.4232 116.97 30.5194C116.322 32.6157 115.939 36.1584 114.441 37.7614C117.101 37.567 123.292 34.1408 124.499 33.3358C125.706 32.5307 126.108 32.5978 126.913 32.3635C127.718 32.1292 129.639 31.9966 130.936 33.3358C132.233 34.6749 135.199 37.0125 136.988 37.5341C137.477 36.1035 135.764 31.3245 135.497 29.5151C135.231 27.7056 136.167 26.8988 137.374 25.6918C138.581 24.4848 139.163 24.3066 139.788 24.0825L145.823 20.7081L137.374 18.8522C136.59 18.5272 135.263 18.473 135.497 17.658C135.745 16.7948 136.972 16.8327 137.841 17.0571L148.701 19.8598C145.992 22.9992 140.256 24.9543 138.622 26.9324C136.988 28.9105 137.044 30.4378 137.73 32.3635L139.596 37.6023C140.177 39.2345 137.679 40.4386 136.109 39.705C134.539 38.9713 133.616 37.3319 132.259 36.2546C130.067 34.5142 126.913 34.4284 124.263 35.3296C121.613 36.2308 119.349 37.9783 117.139 39.696C115.714 40.8035 113.495 39.314 113.198 37.534C112.936 35.9635 113.612 34.4312 114.329 32.9835L114.615 32.4091C115.422 30.795 116.169 28.9325 115.558 27.2345C115.049 25.8206 113.73 24.901 112.439 24.1071L111.683 23.6433C110.481 22.89 109.302 22.015 108.808 20.7081C108.244 19.2144 109.223 17.1027 110.815 17.2243C116.946 17.6925 122.932 12.4571 123.284 6.31775C123.376 4.72268 125.592 4.02344 127.004 4.7704Z" fill="#111111"/>
</svg>
