<svg width="100" height="100" viewBox="0 0 100 100" fill="none" xmlns="http://www.w3.org/2000/svg">
<mask id="path-1-inside-1_11540_45381" fill="white">
<path fill-rule="evenodd" clip-rule="evenodd" d="M9.78119 31.2826C4.85225 43.4852 4.82622 47.2035 6.02305 55.9441C7.72026 68.3392 14.3313 78.9863 23.8205 85.6146C33.3097 92.2428 40.7992 92.803 55.5685 93.5554C70.3377 94.3078 82.4494 82.3496 88.7785 69.9815C92.7355 62.2487 93.6639 56.2318 93.1798 44.01C92.6957 31.7883 85.6105 22.4807 77.1451 15.6838C68.0541 8.3846 60.118 6.91622 43.6344 6.39874C27.1507 5.88126 14.7101 19.08 9.78119 31.2826ZM21.3007 36.6045C17.791 45.3407 17.774 48.0034 18.6311 54.263C19.8466 63.1397 24.5654 70.7668 31.3349 75.5173C38.1044 80.2677 43.4454 80.672 53.9776 81.2169C64.5098 81.7619 73.1417 73.2037 77.6498 64.3496C80.4683 58.8139 81.1278 54.5056 80.7775 45.7535C80.4271 37.0014 75.3708 30.3332 69.3313 25.4625C62.8455 20.2318 57.1857 19.177 45.431 18.7995C33.6763 18.4221 24.8105 27.8684 21.3007 36.6045Z"/>
</mask>
<path d="M23.8205 85.6146L22.9615 86.8443L23.8205 85.6146ZM55.5685 93.5554L55.4921 95.0535L55.5685 93.5554ZM88.7785 69.9815L87.4431 69.2982L88.7785 69.9815ZM93.1798 44.01L91.6809 44.0694L93.1798 44.01ZM77.1451 15.6838L78.0842 14.5141L77.1451 15.6838ZM43.6344 6.39874L43.6814 4.89947L43.6344 6.39874ZM21.3007 36.6045L22.6926 37.1637L21.3007 36.6045ZM31.3349 75.5173L30.4732 76.7451L31.3349 75.5173ZM53.9776 81.2169L53.9001 82.7149L53.9776 81.2169ZM77.6498 64.3496L78.9865 65.0302L77.6498 64.3496ZM80.7775 45.7535L82.2763 45.6935L80.7775 45.7535ZM69.3313 25.4625L70.273 24.2949L70.273 24.2949L69.3313 25.4625ZM7.50918 55.7406C6.91338 51.3894 6.64716 48.4445 7.0918 45.1098C7.5392 41.7545 8.71959 37.9158 11.172 31.8444L8.39036 30.7208C5.91385 36.8519 4.61675 40.9737 4.11811 44.7133C3.61671 48.4737 3.93588 51.7582 4.53691 56.1476L7.50918 55.7406ZM24.6795 84.3849C15.5408 78.0015 9.15088 67.7302 7.50918 55.7406L4.53691 56.1476C6.28965 68.9481 13.1218 79.9712 22.9615 86.8443L24.6795 84.3849ZM55.6448 92.0574C40.8645 91.3044 33.7797 90.7414 24.6795 84.3849L22.9615 86.8443C32.8397 93.7442 40.734 94.3017 55.4921 95.0535L55.6448 92.0574ZM87.4431 69.2982C81.2135 81.4721 69.5254 92.7645 55.6448 92.0574L55.4921 95.0535C71.15 95.8512 83.6854 83.227 90.1138 70.6648L87.4431 69.2982ZM91.6809 44.0694C92.1595 56.1507 91.239 61.8803 87.4431 69.2982L90.1138 70.6648C94.232 62.617 95.1682 56.3128 94.6786 43.9507L91.6809 44.0694ZM76.206 16.8534C84.49 23.5046 91.2206 32.4485 91.6809 44.0694L94.6786 43.9507C94.1707 31.1281 86.7311 21.4567 78.0842 14.5141L76.206 16.8534ZM43.5873 7.898C51.8173 8.15636 57.7782 8.65097 62.7853 9.95005C67.742 11.2361 71.8101 13.3239 76.206 16.8534L78.0842 14.5141C73.3891 10.7444 68.9436 8.44851 63.5387 7.04619C58.184 5.65692 51.9351 5.15859 43.6814 4.89947L43.5873 7.898ZM11.172 31.8444C15.9743 19.9553 27.9798 7.40803 43.5873 7.898L43.6814 4.89947C26.3216 4.3545 13.4459 18.2047 8.39036 30.7208L11.172 31.8444ZM20.1173 54.0595C19.6913 50.9487 19.5076 48.8872 19.8154 46.5591C20.1259 44.2104 20.9498 41.5019 22.6926 37.1637L19.9089 36.0454C18.142 40.4433 17.2025 43.4342 16.8413 46.1659C16.4775 48.918 16.7138 51.3177 17.145 54.4665L20.1173 54.0595ZM32.1965 74.2894C25.7769 69.7846 21.2775 62.533 20.1173 54.0595L17.145 54.4665C18.4157 63.7465 23.3538 71.7491 30.4732 76.7451L32.1965 74.2894ZM54.0551 79.7189C43.5124 79.1734 38.5768 78.7667 32.1965 74.2894L30.4732 76.7451C37.6319 81.7686 43.3784 82.1705 53.9001 82.7149L54.0551 79.7189ZM76.313 63.6691C71.9029 72.3309 63.6945 80.2177 54.0551 79.7189L53.9001 82.7149C65.3252 83.3061 74.3806 74.0765 78.9865 65.0302L76.313 63.6691ZM79.2787 45.8135C79.6234 54.426 78.9714 58.4478 76.313 63.6691L78.9865 65.0302C81.9651 59.1799 82.6322 54.5852 82.2763 45.6935L79.2787 45.8135ZM68.3897 26.6301C74.2476 31.3544 78.9523 37.6593 79.2787 45.8135L82.2763 45.6935C81.902 36.3434 76.4941 29.3121 70.273 24.2949L68.3897 26.6301ZM45.3828 20.2988C51.2483 20.4871 55.4574 20.8432 58.978 21.7624C62.4484 22.6685 65.296 24.1351 68.3897 26.6301L70.273 24.2949C66.8808 21.5592 63.6556 19.8831 59.7359 18.8597C55.8665 17.8495 51.3684 17.4894 45.4791 17.3003L45.3828 20.2988ZM22.6926 37.1637C26.0773 28.7389 34.5088 19.9496 45.3828 20.2988L45.4791 17.3003C32.8438 16.8946 23.5437 26.9979 19.9089 36.0454L22.6926 37.1637Z" fill="#111111" mask="url(#path-1-inside-1_11540_45381)"/>
<mask id="path-3-inside-2_11540_45381" fill="white">
<path fill-rule="evenodd" clip-rule="evenodd" d="M5.4713 53.2876C5.56768 54.1352 5.68319 55.0247 5.81309 55.9734C7.5103 68.3685 14.1214 79.0156 23.6105 85.6439C33.0997 92.2721 40.5893 92.8323 55.3585 93.5847C70.1277 94.3371 82.2395 82.3789 88.5685 70.0108C92.5256 62.278 93.4539 56.2611 92.9698 44.0393C92.9167 42.6988 92.7842 41.3933 92.5791 40.1223C88.4356 40.5808 84.2436 41.1284 80.0522 41.7364C80.3345 43.0325 80.5114 44.3809 80.5675 45.7828C80.9178 54.5349 80.2583 58.8432 77.4398 64.3789C72.9318 73.233 64.2999 81.7912 53.7677 81.2462C43.2354 80.7013 37.8944 80.297 31.1249 75.5465C24.3554 70.7961 19.6366 63.169 18.4212 54.2923C18.3389 53.6913 18.2647 53.1235 18.2008 52.5803C12.4711 53.3983 8.05815 53.7335 5.4713 53.2876Z"/>
</mask>
<path fill-rule="evenodd" clip-rule="evenodd" d="M5.4713 53.2876C5.56768 54.1352 5.68319 55.0247 5.81309 55.9734C7.5103 68.3685 14.1214 79.0156 23.6105 85.6439C33.0997 92.2721 40.5893 92.8323 55.3585 93.5847C70.1277 94.3371 82.2395 82.3789 88.5685 70.0108C92.5256 62.278 93.4539 56.2611 92.9698 44.0393C92.9167 42.6988 92.7842 41.3933 92.5791 40.1223C88.4356 40.5808 84.2436 41.1284 80.0522 41.7364C80.3345 43.0325 80.5114 44.3809 80.5675 45.7828C80.9178 54.5349 80.2583 58.8432 77.4398 64.3789C72.9318 73.233 64.2999 81.7912 53.7677 81.2462C43.2354 80.7013 37.8944 80.297 31.1249 75.5465C24.3554 70.7961 19.6366 63.169 18.4212 54.2923C18.3389 53.6913 18.2647 53.1235 18.2008 52.5803C12.4711 53.3983 8.05815 53.7335 5.4713 53.2876Z" fill="#111111"/>
<path d="M5.4713 53.2876L5.64118 52.3021L4.32705 52.0756L4.4777 53.4006L5.4713 53.2876ZM23.6105 85.6439L24.1832 84.8241L23.6105 85.6439ZM55.3585 93.5847L55.4094 92.586L55.3585 93.5847ZM88.5685 70.0108L87.6783 69.5552L88.5685 70.0108ZM92.9698 44.0393L91.9706 44.0789L92.9698 44.0393ZM92.5791 40.1223L93.5664 39.963L93.4148 39.0237L92.4691 39.1284L92.5791 40.1223ZM80.0522 41.7364L79.9087 40.7467L78.8468 40.9007L79.0752 41.9492L80.0522 41.7364ZM80.5675 45.7828L79.5683 45.8228L80.5675 45.7828ZM77.4398 64.3789L76.5487 63.9252L77.4398 64.3789ZM53.7677 81.2462L53.8193 80.2476L53.7677 81.2462ZM31.1249 75.5465L30.5505 76.3651L31.1249 75.5465ZM18.2008 52.5803L19.194 52.4636L19.0743 51.4455L18.0595 51.5904L18.2008 52.5803ZM4.4777 53.4006C4.57529 54.2588 4.69191 55.1566 4.82233 56.1091L6.80384 55.8378C6.67446 54.8929 6.56008 54.0117 6.4649 53.1746L4.4777 53.4006ZM4.82233 56.1091C6.55656 68.7744 13.315 79.6722 23.0379 86.4637L24.1832 84.8241C14.9277 78.3591 8.46404 67.9625 6.80384 55.8378L4.82233 56.1091ZM23.0379 86.4637C32.7864 93.2731 40.5458 93.8314 55.3076 94.5834L55.4094 92.586C40.6328 91.8333 33.4131 91.2712 24.1832 84.8241L23.0379 86.4637ZM55.3076 94.5834C70.6693 95.366 83.0635 82.9638 89.4587 70.4663L87.6783 69.5552C81.4155 81.7939 69.5862 93.3083 55.4094 92.586L55.3076 94.5834ZM89.4587 70.4663C93.5232 62.5235 94.4568 56.3151 93.969 43.9998L91.9706 44.0789C92.451 56.207 91.5279 62.0324 87.6783 69.5552L89.4587 70.4663ZM93.969 43.9998C93.9143 42.619 93.7778 41.2735 93.5664 39.963L91.5919 40.2816C91.7906 41.513 91.9191 42.7785 91.9706 44.0789L93.969 43.9998ZM92.4691 39.1284C88.3126 39.5883 84.1092 40.1375 79.9087 40.7467L80.1958 42.726C84.378 42.1194 88.5587 41.5733 92.6891 41.1162L92.4691 39.1284ZM81.5667 45.7428C81.5082 44.2823 81.3239 42.876 81.0293 41.5236L79.0752 41.9492C79.3452 43.1889 79.5145 44.4795 79.5683 45.8228L81.5667 45.7428ZM78.3309 64.8327C81.2562 59.0872 81.9207 54.588 81.5667 45.7428L79.5683 45.8228C79.9149 54.4818 79.2604 58.5991 76.5487 63.9252L78.3309 64.8327ZM53.716 82.2449C64.8434 82.8207 73.7576 73.8149 78.3309 64.8327L76.5487 63.9252C72.1059 72.6511 63.7563 80.7617 53.8193 80.2476L53.716 82.2449ZM30.5505 76.3651C37.5795 81.2976 43.1908 81.7003 53.716 82.2449L53.8193 80.2476C43.2801 79.7022 38.2094 79.2963 31.6993 74.728L30.5505 76.3651ZM17.4304 54.4279C18.6827 63.5735 23.5477 71.451 30.5505 76.3651L31.6993 74.728C25.1631 70.1413 20.5906 62.7645 19.4119 54.1566L17.4304 54.4279ZM17.2076 52.6971C17.2725 53.2489 17.3477 53.8236 17.4304 54.4279L19.4119 54.1566C19.3301 53.5591 19.2568 52.9982 19.194 52.4636L17.2076 52.6971ZM18.0595 51.5904C12.3088 52.4114 8.0491 52.7172 5.64118 52.3021L5.30143 54.2731C8.06721 54.7498 12.6334 54.3853 18.3421 53.5703L18.0595 51.5904Z" fill="#111111" mask="url(#path-3-inside-2_11540_45381)"/>
</svg>
