<svg width="60" height="14" viewBox="0 0 60 14" fill="none" xmlns="http://www.w3.org/2000/svg">
<g clip-path="url(#clip0_13056_51344)">
<path d="M12.6216 0.450684H0V13.1267H12.6216V0.450684Z" fill="black"/>
<path d="M12.2858 0.825684H0.373047V12.7894H12.2858V0.825684Z" fill="#FFEE00"/>
<path d="M1.00799 10.3514L2.57637 11.9267L6.19869 8.21371L9.97032 12.0017L11.5387 10.4264L7.80439 6.67639L8.51392 5.96371V4.46371L8.96218 4.08836V5.32604L9.52206 5.81371L11.2401 4.08836L11.8 4.50104C12.1362 3.30104 10.2316 0.525684 8.66323 2.06336L6.83358 3.90104L7.20683 4.35104L6.27334 5.25104L5.41451 4.35104L5.90009 3.93836L3.88381 1.98836C2.38939 0.750684 0.821017 2.62568 0.783691 4.50104L1.34392 4.05104L3.02427 5.88871L3.62183 5.40104V4.27604L3.99509 4.57604V6.03871L4.7423 6.78871L1.00799 10.3514ZM56.1257 5.66371H57.3581V4.23836H58.5155V5.66371H59.748V2.13836H58.5155V3.37604H57.3581V2.13836H56.1257V5.66371ZM48.6197 3.15104C48.881 2.96336 49.2546 2.85104 49.5532 2.85104C49.7029 2.85104 50.0388 2.88836 50.0388 3.18836C50.0388 3.48836 49.7402 3.48836 49.6279 3.48836H49.0307V4.27604H49.5532C49.7402 4.27604 50.0761 4.27604 50.0761 4.57604C50.0761 4.68871 50.0015 4.91371 49.5906 4.91371C49.1426 4.91371 48.881 4.80104 48.5078 4.57604L48.1718 5.40104C48.6524 5.66821 49.1915 5.81006 49.7402 5.81371C51.1589 5.81371 51.3459 4.98871 51.3459 4.72604C51.3459 4.35104 51.1216 3.97604 50.6364 3.86336C50.935 3.71336 51.1589 3.41336 51.1589 3.03836C51.1589 2.21336 50.3001 2.02568 49.7402 2.02568C49.2546 2.02568 48.6571 2.17568 48.2838 2.36336L48.6197 3.15104ZM45.8939 1.65104C46.4538 1.65104 47.0514 1.42568 47.3126 0.825684L46.4911 0.525684C46.3792 0.93836 46.0432 0.975684 45.8939 0.975684C45.7443 0.975684 45.4083 0.93836 45.2964 0.525684L44.5122 0.825684C44.7735 1.46301 45.371 1.65068 45.8939 1.65068V1.65104ZM43.9893 2.13836V5.70068H45.1844L46.4165 3.75068V5.70068H47.6489V2.13836H46.4538L45.2217 4.05104V2.13836H43.9893ZM35.7365 4.91371V2.92604C35.3259 2.92604 34.8776 3.22604 34.8776 3.90104C34.915 4.61371 35.3259 4.91371 35.7365 4.91371ZM36.8196 2.92604V4.91371C37.2302 4.91371 37.6785 4.61336 37.6785 3.93836C37.6785 3.26336 37.2302 2.92604 36.8196 2.92604ZM35.6618 7.23871V5.73871C34.915 5.73871 33.7202 5.43871 33.7202 3.90068C33.7202 2.36336 34.9523 2.06336 35.6618 2.06336V0.525684H36.8943V2.06336C37.6411 2.06336 38.8359 2.36336 38.8359 3.90104C38.8359 5.43871 37.6038 5.73871 36.8943 5.73871V7.23871H35.6618ZM30.1725 4.91371V2.92604C29.7619 2.92604 29.3137 3.22604 29.3137 3.90104C29.3137 4.61371 29.7243 4.91371 30.1725 4.91371ZM31.2557 2.92604V4.91371C31.6662 4.91371 32.1145 4.61336 32.1145 3.93836C32.0772 3.26336 31.6662 2.92604 31.2557 2.92604ZM30.0975 7.23871V5.73871C29.3507 5.73871 28.1556 5.43871 28.1556 3.90068C28.1556 2.36336 29.3507 2.06336 30.0975 2.06336V0.525684H31.33V2.06336C32.0765 2.06336 33.2716 2.36336 33.2716 3.90104C33.2716 5.43871 32.0395 5.73871 31.33 5.73871V7.23871H30.0975ZM25.8033 1.65068C26.3632 1.65068 26.9608 1.42568 27.1847 0.825684L26.3636 0.525684C26.2516 0.93836 25.9157 0.975684 25.766 0.975684C25.6167 0.975684 25.2808 0.93836 25.1688 0.525684L24.3846 0.825684C24.6459 1.46301 25.2435 1.65068 25.8033 1.65068ZM23.8614 2.13836V5.70068H25.0561L26.2886 3.75068V5.70068H27.521V2.13836H26.3259L25.0938 4.05104V2.13836H23.8614ZM16.2811 1.57568V2.77604H16.7294C17.3643 2.77604 17.4016 2.40068 17.4016 2.17568C17.4016 1.91336 17.3266 1.57568 16.7294 1.57568H16.2811ZM14.9367 5.66371V0.450684H17.028C18.4471 0.450684 18.8576 1.46336 18.8576 2.17604C18.8576 2.88836 18.4471 3.90104 17.0653 3.90104H16.3188V5.66371H14.9367ZM43.2051 2.13836V5.70068H41.9726V5.28871C41.7487 5.62604 41.3381 5.81336 40.9272 5.81336C39.8817 5.81336 39.1722 4.91371 39.1722 3.90104C39.1722 2.88836 39.8817 2.02568 40.9272 2.02568C41.3381 2.02568 41.7487 2.17568 42.0103 2.47568V2.13836H43.2051ZM41.2261 3.11371C40.7032 3.11371 40.4416 3.48836 40.4416 3.90104C40.4416 4.35104 40.7406 4.68871 41.2261 4.68871C41.7114 4.68871 42.0103 4.35068 42.0103 3.90104C42.0103 3.45104 41.7114 3.11336 41.2261 3.11336V3.11371ZM23.0775 2.13836V5.70068H21.8451V5.28871C21.6211 5.62604 21.2102 5.81336 20.7996 5.81336C19.7542 5.81336 19.0446 4.91371 19.0446 3.90104C19.0446 2.88836 19.7542 2.02568 20.7993 2.02568C21.2102 2.02568 21.6211 2.17568 21.8824 2.47568V2.13836H23.0775ZM21.0982 3.11371C20.5757 3.11371 20.314 3.48836 20.314 3.90104C20.314 4.35104 20.613 4.68871 21.0982 4.68871C21.5838 4.68871 21.8824 4.35068 21.8824 3.90104C21.8824 3.45104 21.5838 3.11336 21.0982 3.11336V3.11371ZM55.5281 4.05104V4.20104H52.9143C52.9143 4.72604 53.1756 4.98871 53.6985 4.98871C53.9597 4.98871 54.1464 4.91371 54.296 4.65104H55.4908C55.3042 5.51371 54.52 5.88871 53.6985 5.88871C52.5407 5.88871 51.6818 5.21371 51.6818 4.01336C51.6818 2.81336 52.466 2.10068 53.6238 2.10068C54.8186 2.06336 55.5281 2.85068 55.5281 4.05104ZM52.9143 3.45104H54.3333C54.2583 3.11336 53.9597 2.88836 53.6238 2.88836C53.2875 2.88836 52.9889 3.07604 52.9143 3.45104ZM16.5424 12.0391H16.7664C16.9903 12.0391 17.1773 12.0391 17.3266 12.0017C17.4759 11.9641 17.5882 11.9267 17.6999 11.8517C17.8122 11.7767 17.8868 11.6264 17.9242 11.4391C17.9615 11.2514 17.9615 11.1391 17.8868 11.0641C17.8122 10.9891 17.6999 10.9141 17.5879 10.9141C17.4762 10.9141 17.2893 10.8764 17.028 10.8764H16.8037L16.5421 12.0391H16.5424ZM19.4925 7.87639L19.2309 9.03871H17.14L16.9907 9.75139H17.7749C18.1854 9.75139 18.4844 9.82639 18.7457 9.93906C19.0073 10.0517 19.1562 10.2764 19.2682 10.5014C19.3432 10.7641 19.3806 11.0641 19.2682 11.4391C19.1936 11.7767 19.0443 12.1141 18.8203 12.3391C18.5964 12.6017 18.3347 12.7891 18.0361 12.9017C17.7009 13.0248 17.347 13.0882 16.9903 13.0891H14.8994L16.0195 7.80139H19.4925V7.87639ZM22.7789 9.48906L21.8451 11.1767H22.9655L22.7789 9.48906ZM21.2475 12.2267L20.688 13.1267H19.2312L22.368 7.83871H23.8617L24.7205 13.1267H23.2642L23.1149 12.2267H21.2479H21.2475ZM29.351 9.90139L29.7616 7.87639H31.1433L30.0232 13.1267H28.6415L29.1271 10.9891H27.1478L26.6995 13.1267H25.3181L26.4382 7.87639H27.7826L27.3717 9.90139H29.351ZM35.2139 7.87639H36.9316L34.3178 10.3517L35.9981 13.1267H34.2058L32.936 10.8391L32.4508 13.1267H31.069L32.1892 7.87639H33.5709L33.0853 10.0514H33.123L35.2139 7.87639Z" fill="black"/>
</g>
<defs>
<clipPath id="clip0_13056_51344">
<rect width="60" height="12.6761" fill="white" transform="translate(0 0.450684)"/>
</clipPath>
</defs>
</svg>
