<svg width="60" height="14" viewBox="0 0 60 14" fill="none" xmlns="http://www.w3.org/2000/svg">
<g clip-path="url(#clip0_13056_51379)">
<path d="M13.7244 1.99316H16.5044C17.912 1.99316 18.8622 3.16063 18.8622 4.29271C18.8622 5.46019 17.912 6.62765 16.5044 6.62765H14.7801V8.50265H13.7244V1.99316ZM16.3988 5.63704C17.3138 5.63704 17.8065 4.92949 17.8065 4.29271C17.8065 3.62053 17.3138 2.94836 16.3988 2.94836H14.7801V5.63704H16.3988Z" fill="#323E48"/>
<path d="M19.179 6.13221C19.179 4.75248 20.1291 3.65576 21.6071 3.65576C23.1203 3.65576 23.8593 4.92933 23.8593 6.20295V6.45059H20.2347C20.3754 7.26429 21.0792 7.7242 22.0294 7.7242C22.6276 7.7242 23.1203 7.5473 23.5426 7.29966V8.18411C23.1555 8.46712 22.5221 8.64402 21.8183 8.64402C20.3402 8.64402 19.179 7.65341 19.179 6.13221ZM22.8036 5.63693C22.8036 5.1416 22.4165 4.50482 21.5719 4.50482C20.7625 4.50482 20.3051 5.07086 20.2698 5.63693H22.8036Z" fill="#323E48"/>
<path d="M24.7742 3.76221H25.8299V5.60184H28.2228V3.76221H29.2786V8.50282H28.2228V6.52166H25.8299V8.50282H24.7742V3.76221Z" fill="#323E48"/>
<path d="M30.1584 6.13221C30.1584 4.75248 31.1086 3.65576 32.5866 3.65576C34.0998 3.65576 34.8388 4.92933 34.8388 6.20295V6.45059H31.2142C31.3549 7.26429 32.0587 7.7242 33.0089 7.7242C33.6071 7.7242 34.0998 7.5473 34.5221 7.29966V8.18411C34.135 8.46712 33.5016 8.64402 32.7977 8.64402C31.3197 8.64402 30.1584 7.65341 30.1584 6.13221ZM33.7831 5.63693C33.7831 5.1416 33.396 4.50482 32.5514 4.50482C31.742 4.50482 31.2846 5.07086 31.2493 5.63693H33.7831Z" fill="#323E48"/>
<path d="M35.437 6.13221C35.437 4.64633 36.5983 3.65576 38.0059 3.65576C38.569 3.65576 38.9913 3.76189 39.4136 3.97416V4.85859C38.9913 4.64633 38.6042 4.5402 38.1467 4.5402C37.2318 4.5402 36.4576 5.17702 36.4576 6.13221C36.4576 7.08739 37.1966 7.7242 38.1467 7.7242C38.6746 7.7242 39.0969 7.61804 39.484 7.3704V8.25485C39.0265 8.50249 38.569 8.64402 37.9708 8.64402C36.5983 8.64402 35.437 7.61804 35.437 6.13221Z" fill="#323E48"/>
<path d="M40.0117 6.13221C40.0117 4.64633 41.173 3.65576 42.5806 3.65576C43.1437 3.65576 43.566 3.76189 43.9883 3.97416V4.85859C43.566 4.64633 43.1789 4.5402 42.7214 4.5402C41.8065 4.5402 41.0323 5.17702 41.0323 6.13221C41.0323 7.08739 41.7713 7.7242 42.7214 7.7242C43.2493 7.7242 43.6716 7.61804 44.0587 7.3704V8.25485C43.6012 8.50249 43.1437 8.64402 42.5455 8.64402C41.2082 8.64402 40.0117 7.61804 40.0117 6.13221Z" fill="#323E48"/>
<path d="M49.83 7.61804V8.39638C49.6892 8.50249 49.4427 8.53786 49.2318 8.53786C48.774 8.53786 48.3872 8.32559 48.2464 7.86568C47.8943 8.25485 47.3312 8.60865 46.5221 8.60865C45.5366 8.60865 44.7625 8.04258 44.7625 7.01665C44.7625 5.95531 45.5366 5.63693 46.5572 5.63693C47.261 5.63693 48.1758 5.63693 48.1758 5.63693V5.56614C48.1758 4.75248 47.5075 4.5402 46.8037 4.5402C46.2406 4.5402 45.6774 4.75248 45.3255 4.96475V4.04492C45.6774 3.86803 46.205 3.65576 47.0497 3.65576C48.3166 3.65576 49.2318 4.25718 49.2318 5.46003V7.22892C49.2318 7.51193 49.4077 7.68883 49.6186 7.68883C49.6186 7.68883 49.7243 7.68883 49.83 7.61804ZM48.1056 6.45059C48.1056 6.45059 47.3667 6.45059 46.8738 6.45059C46.205 6.45059 45.7477 6.59212 45.7477 7.05202C45.7477 7.58267 46.205 7.75957 46.7681 7.75957C47.3312 7.75957 47.8592 7.47656 48.1056 7.19351V6.45059Z" fill="#323E48"/>
<path d="M50.5688 3.76221H51.6244V5.60184H54.0175V3.76221H55.073V8.50282H54.0175V6.52166H51.6244V8.50282H50.5688V3.76221Z" fill="#323E48"/>
<path d="M55.9531 6.13221C55.9531 4.64633 57.1144 3.65576 58.522 3.65576C59.0851 3.65576 59.5074 3.76189 59.9297 3.97416V4.85859C59.5074 4.64633 59.1202 4.5402 58.6628 4.5402C57.7476 4.5402 56.9736 5.17702 56.9736 6.13221C56.9736 7.08739 57.7125 7.7242 58.6628 7.7242C59.1904 7.7242 59.6127 7.61804 59.9999 7.3704V8.25485C59.5425 8.50249 59.0851 8.64402 58.4865 8.64402C57.1144 8.64402 55.9531 7.61804 55.9531 6.13221Z" fill="#323E48"/>
<path d="M13.7244 11.0503H14.217V11.9701L15.0616 11.0503H15.6598L14.6745 12.1116L15.8358 13.3852H15.2376L14.2522 12.3239V13.3852H13.7244V11.0503Z" fill="#323E48"/>
<path d="M16.4692 11.0503H17.4898C17.9824 11.0503 18.2992 11.3333 18.2992 11.7578C18.2992 12.1824 17.9824 12.4654 17.4898 12.4654H16.9619V13.3852H16.4692V11.0503ZM17.4546 12.0409C17.6657 12.0409 17.8065 11.9347 17.8065 11.7578C17.8065 11.5809 17.6657 11.4748 17.4546 11.4748H16.9619V12.0409H17.4546Z" fill="#323E48"/>
<path d="M19.0029 11.0503H20.6921V11.4748H19.4604V11.9347H20.4457V12.3592H19.4604V12.9607H20.7625V13.3852H19.0029V11.0503Z" fill="#323E48"/>
<path d="M21.3958 12.9605H21.6069C21.8181 12.6421 21.9236 12.2175 21.9236 11.4392V11.0854H23.5424V12.9959H23.8591V13.9157H23.4017V13.4558H21.8181V13.9157H21.3606V12.9605H21.3958ZM23.0849 12.9605V11.4746H22.4163C22.4163 11.9699 22.3811 12.4652 22.17 12.9605H23.0849Z" fill="#323E48"/>
<path d="M24.5981 11.0503H25.0908V12.5715L26.2169 11.0503H26.6392V13.3852H26.1817V11.864L24.9853 13.3852H24.5981V11.0503Z" fill="#323E48"/>
<path d="M29.2434 11.0503V11.4748H28.5044V13.3852H28.0117V11.4748H27.2727V11.0503H29.2434Z" fill="#323E48"/>
<path d="M1.5132 11.0503H0V4.50543C0 2.27665 1.82991 0.437012 4.04692 0.437012H9.04399V4.47006C9.04399 6.73425 7.21408 8.53846 4.99708 8.53846H2.46334L3.02639 7.01726H4.96186C6.36951 7.01726 7.49562 5.88517 7.49562 4.47006V1.95825H4.01173C2.60411 1.95825 1.47801 3.09033 1.47801 4.50543V11.0503H1.5132Z" fill="#DF307C"/>
</g>
<defs>
<clipPath id="clip0_13056_51379">
<rect width="60" height="13.9437" fill="white" transform="translate(0 0.0283203)"/>
</clipPath>
</defs>
</svg>
