<svg width="60" height="30" viewBox="0 0 60 30" fill="none" xmlns="http://www.w3.org/2000/svg">
<g clip-path="url(#clip0_13056_51505)">
<path fill-rule="evenodd" clip-rule="evenodd" d="M35.0662 1.89584C34.274 1.13073 33.4412 1.05625 33.0282 1.05625C31.3761 1.05625 30.2995 2.26823 30.2995 3.90677C30.2995 5.51147 31.4167 6.70312 33.0282 6.70312C33.387 6.70312 34.2198 6.62869 35.0662 5.84324V7.20419C34.8428 7.35313 34.1251 7.76619 32.9876 7.76619C32.3443 7.76619 31.2813 7.6375 30.2995 6.737C29.5615 6.03282 29.0876 5.13907 29.0876 3.90677C29.0876 2.93854 29.3922 1.84167 30.2995 0.981775C31.0917 0.236979 32.0057 0 33.0417 0C34.0303 0 34.6126 0.236979 35.0662 0.555209V1.89584ZM0 7.61719V0.236986H4.50261V2.01094H2.09896V3.12814H4.27918V4.82085H2.09896V7.61719H0ZM9.10669 5.06458C9.10669 4.24531 8.68687 3.66978 7.94887 3.66978C7.19056 3.66978 6.79781 4.24531 6.79781 5.06458C6.79781 5.91771 7.19056 6.47969 7.94887 6.47969C8.68687 6.47969 9.10669 5.91771 9.10669 5.06458ZM4.84783 5.06458C4.84783 3.62916 5.80929 2.3427 7.94887 2.3427C10.0884 2.3427 11.0364 3.62916 11.0364 5.06458C11.0364 6.51356 10.0884 7.8 7.94887 7.8C5.80929 7.8 4.84783 6.51356 4.84783 5.06458ZM13.7584 2.53229H11.9641V7.61719H13.8328V5.4573C13.8328 5.28803 13.8531 4.00157 15.2344 4.00157C15.4037 4.00157 15.5391 4.00157 15.7084 4.07605V2.45782C15.6542 2.43751 15.3698 2.41719 15.2344 2.41719C14.9162 2.41719 14.3678 2.51198 13.9141 2.99271C13.8734 3.05365 13.8193 3.12813 13.7584 3.20261V2.53229ZM20.0079 4.48906C19.9673 3.94739 19.6287 3.44634 18.9448 3.44634C18.3219 3.44634 17.9428 3.92707 17.9021 4.48906H20.0079ZM21.7615 6.06666C21.1589 7.8 19.4188 7.8 18.9854 7.8C17.374 7.8 16.1079 6.85206 16.1079 5.06458C16.1079 3.45989 17.1844 2.3427 18.9448 2.3427C21.4229 2.3427 21.8428 4.3401 21.8021 5.47083H17.8682C17.8479 6.1276 18.2271 6.70312 18.9854 6.70312C19.4932 6.70312 19.8724 6.47969 19.9672 6.06666H21.7615ZM22.4251 2.53229L24.3209 4.89532L22.0459 7.61719H24.3209L25.4177 5.95834L26.474 7.61719H28.6339L26.6298 4.91563L28.5594 2.53229H26.3792L25.5329 3.89323L24.7204 2.53229H22.4251ZM40.1241 5.45731V2.54584H38.9324V5.49116C38.9324 6.08699 38.9663 6.62869 39.4808 7.15C40.0293 7.712 40.8011 7.7865 41.1261 7.7865C41.485 7.7865 42.2569 7.712 42.7917 7.15C43.2996 6.62869 43.3402 6.08699 43.3402 5.49116V2.54584H42.1485V5.45731C42.1485 5.76877 42.1485 6.10731 41.9386 6.38494C41.7694 6.58806 41.5053 6.72344 41.1464 6.72344C40.7673 6.72344 40.5032 6.58806 40.3475 6.38494C40.1241 6.10731 40.1241 5.76877 40.1241 5.45731ZM36.2986 7.61719H37.4902V0.236986H36.2986V7.61719ZM45.9131 5.11876C45.9131 6.01252 46.4412 6.72344 47.3688 6.72344C48.2761 6.72344 48.8109 5.97866 48.8109 5.09845C48.8109 4.19116 48.2422 3.45991 47.3688 3.45991C46.6307 3.45991 45.9131 3.98126 45.9131 5.11876ZM45.9875 3.14167C46.4818 2.49167 47.1453 2.39689 47.5381 2.39689C49.1495 2.39689 50.0365 3.72397 50.0365 5.08491C50.0365 6.77763 48.8245 7.7865 47.5381 7.7865C46.6511 7.7865 46.1974 7.33963 45.9875 7.09588V7.61719H44.7959V0.236986H45.9875V3.14167Z" fill="black"/>
<path d="M39.4683 16.0814L30 25.5139V30L40.7566 19.2488H52.7607L60 12.007V7.52094L51.4383 16.0814H39.4683ZM60 0L49.2434 10.7581H37.2393L30 17.993V22.5209L38.5617 13.9604H50.5658L60 4.52791V0Z" fill="#FF7C07"/>
</g>
<defs>
<clipPath id="clip0_13056_51505">
<rect width="60" height="30" fill="white"/>
</clipPath>
</defs>
</svg>
