<svg width="60" height="20" viewBox="0 0 60 20" fill="none" xmlns="http://www.w3.org/2000/svg">
<g clip-path="url(#clip0_13056_52128)">
<path fill-rule="evenodd" clip-rule="evenodd" d="M0.0244141 12.6642V12.627C0.0244141 8.95951 2.87847 5.8537 6.89441 5.8537C8.89266 5.8537 10.2244 6.32099 11.4427 7.18187C11.59 7.28949 11.7098 7.43026 11.7925 7.59277C11.8752 7.75528 11.9184 7.93496 11.9186 8.11725C11.9186 8.73518 11.405 9.25915 10.7575 9.25915C10.4531 9.25915 10.2248 9.12796 10.0343 8.99676C9.17806 8.37965 8.24563 7.96743 6.79914 7.96743C4.34441 7.96743 2.47955 10.0824 2.47955 12.5893V12.627C2.47955 15.3214 4.28725 17.3047 7.00874 17.3047C8.26468 17.3047 9.40631 16.9119 10.2248 16.313V13.862H7.5986C7.02739 13.862 6.55225 13.432 6.55225 12.8707C6.55225 12.3091 7.02739 11.86 7.5986 11.86H11.3097C11.9754 11.86 12.4894 12.3654 12.4894 13.0205V16.5191C12.4894 17.1739 12.2231 17.642 11.6713 17.9785C10.5293 18.7272 8.93077 19.4006 6.93293 19.4006C2.76455 19.4002 0.0244141 16.4819 0.0244141 12.6642ZM14.5882 6.54572C14.5882 5.9282 15.0828 5.42285 15.7294 5.42285C16.3768 5.42285 16.8905 5.9282 16.8905 6.54572V18.147C16.8905 18.7831 16.3764 19.2694 15.7294 19.2694C15.1018 19.2694 14.5882 18.7835 14.5882 18.1465V6.54532V6.54572ZM18.6743 14.2924V14.2544C18.6743 11.4292 20.9575 9.0903 24.0406 9.0903C27.1233 9.0903 29.3883 11.3919 29.3883 14.2175V14.2544C29.3883 17.0617 27.1047 19.4006 24.0025 19.4006C20.9385 19.4006 18.6743 17.099 18.6743 14.2924ZM27.0856 14.2924V14.2544C27.0856 12.5148 25.8102 11.074 24.0025 11.074C22.1563 11.074 20.9766 12.4962 20.9766 14.2175V14.2544C20.9766 15.9761 22.2516 17.4169 24.0406 17.4169C25.9055 17.4169 27.0852 15.9948 27.0852 14.2924H27.0856ZM35.1374 19.363H35.0231C34.3955 19.363 33.9763 18.9702 33.7104 18.3709L30.3617 10.8303C30.3041 10.6618 30.2279 10.4756 30.2279 10.269C30.2279 9.70782 30.7416 9.18384 31.3696 9.18384C31.9971 9.18384 32.3206 9.53937 32.5112 10.0075L35.0993 16.556L37.7255 9.97021C37.897 9.57702 38.201 9.18384 38.8104 9.18384C39.4383 9.18384 39.9329 9.65194 39.9329 10.269C39.9329 10.4756 39.8571 10.6999 39.8004 10.8117L36.4509 18.3713C36.1833 18.9511 35.7658 19.3634 35.1374 19.3634V19.363ZM40.7725 14.2924V14.2544C40.7725 11.4292 43.0562 9.0903 46.1401 9.0903C49.222 9.0903 51.487 11.3919 51.487 14.2175V14.2544C51.487 17.0617 49.2033 19.4006 46.1012 19.4006C43.0375 19.4006 40.7725 17.099 40.7725 14.2924ZM49.1847 14.2924V14.2544C49.1847 12.5148 47.9093 11.074 46.1012 11.074C44.2554 11.074 43.0756 12.4962 43.0756 14.2175V14.2544C43.0756 15.9761 44.3502 17.4169 46.1397 17.4169C48.0041 17.4169 49.1843 15.9948 49.1843 14.2924H49.1847Z" fill="#00A082"/>
<path fill-rule="evenodd" clip-rule="evenodd" d="M55.3374 0.121582C52.8442 0.121582 50.8159 2.11667 50.8159 4.56771C50.8159 5.50148 51.1111 6.39799 51.6685 7.16007L51.7889 7.32406L54.1427 10.5906C54.1427 10.5906 54.4301 11.0522 55.0565 11.0522H55.6188C56.2455 11.0522 56.5317 10.5906 56.5317 10.5906L58.8863 7.32406L59.0055 7.16007C59.5599 6.40915 59.8589 5.50068 59.8589 4.56771C59.8589 2.11667 57.8306 0.121582 55.3374 0.121582ZM57.1982 5.88049L57.0729 6.05299L55.3378 8.46111L53.6051 6.05785L53.4778 5.88332C53.1957 5.50252 53.0431 5.04145 53.0424 4.56771C53.0424 3.32336 54.0721 2.31104 55.337 2.31104C56.6027 2.31104 57.632 3.32336 57.632 4.56771C57.632 5.03945 57.482 5.49338 57.1982 5.88049ZM54.0656 13.0579V13.049C54.0656 12.3849 54.602 11.8346 55.3265 11.8346C56.0517 11.8346 56.5836 12.3756 56.5836 13.04V13.049C56.5836 13.7082 56.0469 14.2581 55.3179 14.2581C54.5984 14.2581 54.0652 13.7175 54.0652 13.0579H54.0656Z" fill="#00A082"/>
</g>
<defs>
<clipPath id="clip0_13056_52128">
<rect width="60" height="19.4366" fill="white" transform="translate(0 0.0703125)"/>
</clipPath>
</defs>
</svg>
