<svg width="148" height="148" viewBox="0 0 148 148" fill="none" xmlns="http://www.w3.org/2000/svg">
<path d="M134 144.7V59.7004H13.6V144.7H73.8H134ZM73.8 144.7V59.7004V144.7ZM3 31.4004H144.7V59.7004H3V31.4004Z" fill="#001220"/>
<path fill-rule="evenodd" clip-rule="evenodd" d="M43.3 0.9C44.5 -0.3 46.4 -0.3 47.5 0.9L73.8 27.2L100 0.9C101.2 -0.3 103.1 -0.3 104.2 0.9C105.4 2.1 105.4 4 104.2 5.1L81 28.4H144.6C146.3 28.4 147.6 29.7 147.6 31.4V59.7C147.6 61.4 146.3 62.7 144.6 62.7H137V144.7C137 146.4 135.7 147.7 134 147.7H13.6C11.9 147.7 10.6 146.4 10.6 144.7V62.7H3C1.3 62.7 0 61.4 0 59.7V31.4C0 29.7 1.3 28.4 3 28.4H66.6L43.3 5.2C42.2 4 42.2 2.1 43.3 0.9ZM6 34.4V56.7H141.7V34.4H6ZM70.8 62.7H16.6V141.7H70.8V62.7ZM76.8 141.7V62.7H131V141.7H76.8Z" fill="url(#paint0_linear_12732_4657)"/>
<defs>
<linearGradient id="paint0_linear_12732_4657" x1="73.7995" y1="3.066" x2="73.7995" y2="144.733" gradientUnits="userSpaceOnUse">
<stop stop-color="#C7FFD3"/>
<stop offset="1" stop-color="#C7FFD3" stop-opacity="0"/>
</linearGradient>
</defs>
</svg>
