<svg width="167" height="50" viewBox="0 0 167 50" fill="none" xmlns="http://www.w3.org/2000/svg">
<path d="M60 2H70.0918C71.7402 2 72.9512 2.38809 73.7249 3.16428C74.4986 3.92322 74.8854 5.08751 74.8854 6.65713C74.8854 7.69205 74.6668 8.53723 74.2295 9.19268C73.7922 9.83088 73.2539 10.2793 72.6148 10.5381C73.9772 10.9175 74.9023 11.849 75.39 13.3324C75.5582 13.8671 75.6423 14.488 75.6423 15.1952C75.6423 16.8856 75.2555 18.1275 74.4818 18.9209C73.7081 19.7143 72.497 20.1111 70.8487 20.1111H60V2ZM71.101 14.419C71.101 13.3841 70.5964 12.8666 69.5872 12.8666H64.5413V16.4889H69.5872C70.5964 16.4889 71.101 15.9714 71.101 14.9365V14.419ZM70.3441 7.17459C70.3441 6.13967 69.8395 5.62221 68.8304 5.62221H64.5413V9.24443H68.8304C69.8395 9.24443 70.3441 8.72697 70.3441 7.69205V7.17459Z" fill="#1D0402"/>
<path d="M91.536 19.8523C87.7852 20.1973 84.6735 20.3698 82.201 20.3698C80.5527 20.3698 79.3417 19.9731 78.568 19.1796C77.7943 18.3862 77.4074 17.1443 77.4074 15.4539V7.17459C77.4074 5.36348 77.8027 4.05259 78.5932 3.2419C79.4006 2.41397 80.6873 2 82.4533 2H91.536V5.62221H83.4625C82.4533 5.62221 81.9487 6.13967 81.9487 7.17459V15.4539C81.9487 15.8507 82.0581 16.1698 82.2767 16.4112C82.5122 16.6355 82.8065 16.7476 83.1598 16.7476C83.513 16.7476 83.8998 16.7476 84.3203 16.7476C84.7408 16.7303 85.1781 16.7131 85.6323 16.6958C86.0864 16.6786 86.5405 16.6613 86.9947 16.6441C87.4656 16.6268 88.0627 16.5923 88.786 16.5406C89.526 16.4889 90.4427 16.4285 91.536 16.3595V19.8523Z" fill="#1D0402"/>
<path d="M108.695 20.1111H104.154V14.1603H100.748L97.594 20.1111H92.8004L96.0803 13.9016C95.0038 13.6428 94.2301 13.1167 93.7591 12.3233C93.2882 11.5299 93.0527 10.4173 93.0527 8.9857V7.17459C93.0527 5.36348 93.448 4.05259 94.2385 3.2419C95.0458 2.41397 96.3326 2 98.0986 2H108.695V20.1111ZM97.594 8.9857C97.594 10.0206 98.0986 10.5381 99.1078 10.5381H104.154V5.62221H99.1078C98.0986 5.62221 97.594 6.13967 97.594 7.17459V8.9857Z" fill="#1D0402"/>
<path d="M75.39 46.6365H70.8487V32.1477H64.5413V46.6365H60V28.5255H75.39V46.6365Z" fill="#1D0402"/>
<path d="M78.4294 28.5255H89.0258C90.7919 28.5255 92.0702 28.9394 92.8607 29.7674C93.6681 30.578 94.0718 31.8889 94.0718 33.7V36.2873C94.0718 38.0984 93.6681 39.418 92.8607 40.2459C92.0702 41.0566 90.7919 41.4619 89.0258 41.4619H82.9707V46.6365H78.4294V28.5255ZM89.5304 33.7C89.5304 32.6651 89.0258 32.1477 88.0167 32.1477H82.9707V37.8397H88.0167C89.0258 37.8397 89.5304 37.3223 89.5304 36.2873V33.7Z" fill="#1D0402"/>
<path d="M97.9922 46.6365H93.0724L99.7583 28.5255H104.804L111.49 46.6365H106.57L105.435 43.4024H99.1275L97.9922 46.6365ZM100.263 40.0389H104.3L102.281 33.9588L100.263 40.0389Z" fill="#1D0402"/>
<path d="M112.751 28.5255H122.842C124.491 28.5255 125.702 28.9135 126.475 29.6897C127.249 30.4487 127.636 31.613 127.636 33.1826C127.636 34.2175 127.417 35.0627 126.98 35.7181C126.543 36.3563 126.004 36.8048 125.365 37.0635C126.728 37.443 127.653 38.3744 128.141 39.8578C128.309 40.3925 128.393 41.0135 128.393 41.7207C128.393 43.411 128.006 44.6529 127.232 45.4464C126.459 46.2398 125.248 46.6365 123.599 46.6365H112.751V28.5255ZM123.852 40.9445C123.852 39.9095 123.347 39.3921 122.338 39.3921H117.292V43.0143H122.338C123.347 43.0143 123.852 42.4968 123.852 41.4619V40.9445ZM123.095 33.7C123.095 32.6651 122.59 32.1477 121.581 32.1477H117.292V35.7699H121.581C122.59 35.7699 123.095 35.2524 123.095 34.2175V33.7Z" fill="#1D0402"/>
<path d="M133.185 28.5255H146.431V43.0143H148.323V50H144.034L143.782 46.6365H133.942L133.69 50H129.401V43.0143H131.041C131.529 42.4451 131.89 41.8069 132.126 41.0997C132.378 40.3753 132.521 39.7198 132.555 39.1334L133.185 28.5255ZM141.89 43.0143V32.1477H137.222L136.844 38.6159C136.793 39.6681 136.541 40.7289 136.087 41.7983C135.902 42.2467 135.692 42.6521 135.456 43.0143H141.89Z" fill="#1D0402"/>
<path d="M153.502 46.6365H148.582L155.268 28.5255H160.314L167 46.6365H162.08L160.945 43.4024H154.638L153.502 46.6365ZM155.773 40.0389H159.81L157.791 33.9588L155.773 40.0389Z" fill="#1D0402"/>
<path fill-rule="evenodd" clip-rule="evenodd" d="M1.66667 0C0.746192 0 0 0.746194 0 1.66667V48.3333C0 49.2538 0.746194 50 1.66667 50H48.3333C49.2538 50 50 49.2538 50 48.3333V1.66667C50 0.746192 49.2538 0 48.3333 0H1.66667ZM20.0577 9.45175C19.0139 8.91187 18.7814 7.59988 19.5868 6.79456C19.843 6.53834 20.3554 6.33332 20.7399 6.33332C21.583 6.33332 22.3542 7.04963 22.3542 7.83235C22.3542 8.14945 22.4061 8.40889 22.4693 8.40889C22.5327 8.40889 24.716 7.9322 27.3213 7.34989C29.9263 6.76735 32.1972 6.34416 32.3677 6.40966C32.7973 6.57455 33.2742 8.71861 33.1264 9.82097C32.9657 11.0204 32.4678 11.7411 31.1839 12.6334C30.0001 13.4563 29.5005 13.7453 29.3893 14.1429C29.2962 14.4754 29.4747 14.8838 29.7518 15.744C30.2845 17.3986 30.2882 17.403 31.1212 17.403C33.1974 17.403 36.2322 15.9469 37.1073 14.5309C37.7275 13.5275 37.7309 11.781 37.115 10.7707C36.7181 10.1196 35.6538 9.27141 34.9257 9.0258C34.5055 8.88397 35.2269 7.75048 35.9877 7.35727C37.7805 6.43018 40.7576 7.43637 42.3332 9.5018C43.6154 11.183 44.0898 12.8218 43.9862 15.2122C43.9071 17.0322 43.8008 17.466 43.1212 18.7362C42.2169 20.4264 40.0904 22.5129 38.2704 23.4955C37.585 23.8657 36.1362 24.4556 35.0509 24.8064C33.301 25.3718 33.0814 25.5042 33.1077 25.9781C33.1239 26.2719 33.5632 28.1254 34.0837 30.0968C35.0246 33.6596 36.8832 42.5534 36.8832 43.4932C36.8832 43.9606 36.799 43.9795 35.178 43.8753C33.1103 43.7427 31.7003 43.0144 30.6851 41.5551C27.0427 36.3182 21.3425 36.3163 17.4755 41.5509C16.3124 43.1253 15.1298 43.7337 12.9565 43.8758C11.4997 43.9708 11.2845 43.9348 11.2845 43.5965C11.2845 42.2686 13.9853 30.0684 15.048 26.595L15.3754 25.5245L13.2014 24.4452C9.50803 22.6116 7.16494 20.0097 6.33379 16.8184C5.88824 15.1079 5.8887 14.1644 6.33541 12.4355C6.82455 10.5435 7.97649 8.88651 9.46813 7.92921C10.6667 7.27777 10.8333 7.22221 12.3553 7.14049C13.6929 7.16417 13.7745 7.21192 14.3942 7.57454C14.4593 7.61261 14.5303 7.65416 14.6093 7.69951C15.4352 8.47462 15.3545 8.89804 14.2613 9.52232C12.5919 10.4759 11.9805 12.7996 12.8788 14.7777C13.5568 16.2707 15.4008 17.403 17.1542 17.403C17.8539 17.403 17.9021 17.3394 18.4201 15.731C18.7162 14.8113 19.3511 13.0976 19.831 11.9224L20.7034 9.78569L20.0577 9.45175Z" fill="#E42010"/>
</svg>
