<svg width="698" height="430" viewBox="0 0 698 430" fill="none" xmlns="http://www.w3.org/2000/svg">
<rect y="163" width="22" height="250" fill="url(#paint0_linear_5587_33659)"/>
<rect x="52" y="41.9998" width="22" height="372" fill="url(#paint1_linear_5587_33659)"/>
<rect x="104" y="85" width="22" height="308" fill="url(#paint2_linear_5587_33659)"/>
<rect x="156" y="63" width="22" height="222" fill="url(#paint3_linear_5587_33659)"/>
<rect x="208" y="93" width="22" height="230" fill="url(#paint4_linear_5587_33659)"/>
<rect x="260" y="130" width="22" height="193" fill="url(#paint5_linear_5587_33659)"/>
<rect x="312" y="169" width="22" height="286" fill="url(#paint6_linear_5587_33659)"/>
<rect x="364" y="130" width="22" height="223" fill="url(#paint7_linear_5587_33659)"/>
<rect x="416" y="160" width="22" height="233" fill="url(#paint8_linear_5587_33659)"/>
<rect x="468" y="93" width="22" height="228" fill="url(#paint9_linear_5587_33659)"/>
<rect x="520" y="99" width="22" height="315" fill="url(#paint10_linear_5587_33659)"/>
<rect x="572" y="130" width="22" height="263" fill="url(#paint11_linear_5587_33659)"/>
<rect x="624" y="121" width="22" height="187" fill="url(#paint12_linear_5587_33659)"/>
<rect x="676" y="166" width="22" height="289" fill="url(#paint13_linear_5587_33659)"/>
<rect y="183" width="22" height="250" fill="url(#paint14_linear_5587_33659)"/>
<rect x="52" y="62" width="22" height="372" fill="url(#paint15_linear_5587_33659)"/>
<rect x="104" y="105" width="22" height="308" fill="url(#paint16_linear_5587_33659)"/>
<rect x="156" y="83" width="22" height="222" fill="url(#paint17_linear_5587_33659)"/>
<rect x="208" y="113" width="22" height="230" fill="url(#paint18_linear_5587_33659)"/>
<rect x="260" y="150" width="22" height="193" fill="url(#paint19_linear_5587_33659)"/>
<rect x="312" y="189" width="22" height="286" fill="url(#paint20_linear_5587_33659)"/>
<rect x="364" y="150" width="22" height="223" fill="url(#paint21_linear_5587_33659)"/>
<rect x="416" y="180" width="22" height="233" fill="url(#paint22_linear_5587_33659)"/>
<rect x="468" y="113" width="22" height="228" fill="url(#paint23_linear_5587_33659)"/>
<rect x="520" y="119" width="22" height="315" fill="url(#paint24_linear_5587_33659)"/>
<rect x="572" y="150" width="22" height="263" fill="url(#paint25_linear_5587_33659)"/>
<rect x="624" y="141" width="22" height="187" fill="url(#paint26_linear_5587_33659)"/>
<rect x="676" y="186" width="22" height="289" fill="url(#paint27_linear_5587_33659)"/>
<line x1="11.5" y1="67.6729" x2="11.5" y2="203.019" stroke="#C7FFD3" stroke-opacity="0.22"/>
<line x1="63.5" x2="63.5" y2="135.346" stroke="#C7FFD3" stroke-opacity="0.22"/>
<line x1="115.5" y1="40.238" x2="115.5" y2="175.584" stroke="#C7FFD3" stroke-opacity="0.22"/>
<line x1="167.5" y1="22.8625" x2="167.5" y2="158.208" stroke="#C7FFD3" stroke-opacity="0.22"/>
<line x1="219.5" y1="5.48706" x2="219.5" y2="246" stroke="#C7FFD3" stroke-opacity="0.22"/>
<line x1="271.5" y1="7.31592" x2="271.5" y2="172.84" stroke="#C7FFD3" stroke-opacity="0.22"/>
<line x1="323.5" y1="59.4424" x2="323.5" y2="225.881" stroke="#C7FFD3" stroke-opacity="0.22"/>
<line x1="375.5" y1="42.0669" x2="375.5" y2="207.591" stroke="#C7FFD3" stroke-opacity="0.22"/>
<line x1="427.5" y1="72.2454" x2="427.5" y2="237.77" stroke="#C7FFD3" stroke-opacity="0.22"/>
<line x1="479.5" y1="21.0337" x2="479.5" y2="156.379" stroke="#C7FFD3" stroke-opacity="0.22"/>
<line x1="531.5" y1="29.2639" x2="531.5" y2="164.61" stroke="#C7FFD3" stroke-opacity="0.22"/>
<line x1="583.5" y1="64.0149" x2="583.5" y2="199.361" stroke="#C7FFD3" stroke-opacity="0.22"/>
<line x1="635.5" y1="53.041" x2="635.5" y2="188.387" stroke="#C7FFD3" stroke-opacity="0.22"/>
<line x1="687.5" y1="83.2192" x2="687.5" y2="218.565" stroke="#C7FFD3" stroke-opacity="0.22"/>
<line x1="11.5" y1="330.599" x2="11.5" y2="469.796" stroke="#C7FFD3" stroke-opacity="0.08"/>
<line x1="63.5" y1="261" x2="63.5" y2="400.197" stroke="#C7FFD3" stroke-opacity="0.08"/>
<line x1="115.5" y1="302.383" x2="115.5" y2="441.58" stroke="#C7FFD3" stroke-opacity="0.08"/>
<line x1="167.5" y1="284.513" x2="167.5" y2="423.71" stroke="#C7FFD3" stroke-opacity="0.08"/>
<line x1="219.5" y1="266.643" x2="219.5" y2="514" stroke="#C7FFD3" stroke-opacity="0.08"/>
<line x1="271.5" y1="268.524" x2="271.5" y2="438.758" stroke="#C7FFD3" stroke-opacity="0.08"/>
<line x1="323.5" y1="322.134" x2="323.5" y2="493.309" stroke="#C7FFD3" stroke-opacity="0.08"/>
<line x1="375.5" y1="304.264" x2="375.5" y2="474.498" stroke="#C7FFD3" stroke-opacity="0.08"/>
<line x1="427.5" y1="335.301" x2="427.5" y2="505.535" stroke="#C7FFD3" stroke-opacity="0.08"/>
<line x1="479.5" y1="282.632" x2="479.5" y2="421.829" stroke="#C7FFD3" stroke-opacity="0.08"/>
<line x1="531.5" y1="291.097" x2="531.5" y2="430.294" stroke="#C7FFD3" stroke-opacity="0.08"/>
<line x1="583.5" y1="326.837" x2="583.5" y2="466.034" stroke="#C7FFD3" stroke-opacity="0.08"/>
<line x1="635.5" y1="315.55" x2="635.5" y2="454.747" stroke="#C7FFD3" stroke-opacity="0.08"/>
<line x1="687.5" y1="346.588" x2="687.5" y2="485.785" stroke="#C7FFD3" stroke-opacity="0.08"/>
<line x1="64" y1="27" x2="64" y2="85" stroke="#C7FFD3" stroke-opacity="0.88" stroke-width="2"/>
<line x1="12" y1="137" x2="12" y2="195" stroke="#C7FFD3" stroke-opacity="0.88" stroke-width="2"/>
<line x1="116" y1="72" x2="116" y2="130" stroke="#C7FFD3" stroke-opacity="0.88" stroke-width="2"/>
<line x1="168" y1="35.0002" x2="168" y2="93.0002" stroke="#C7FFD3" stroke-opacity="0.88" stroke-width="2"/>
<line x1="220" y1="70" x2="220" y2="128" stroke="#C7FFD3" stroke-opacity="0.88" stroke-width="2"/>
<line x1="272" y1="113" x2="272" y2="171" stroke="#C7FFD3" stroke-opacity="0.88" stroke-width="2"/>
<line x1="324" y1="152" x2="324" y2="210" stroke="#C7FFD3" stroke-opacity="0.88" stroke-width="2"/>
<line x1="376" y1="123" x2="376" y2="181" stroke="#C7FFD3" stroke-opacity="0.88" stroke-width="2"/>
<line x1="428" y1="136" x2="428" y2="194" stroke="#C7FFD3" stroke-opacity="0.88" stroke-width="2"/>
<line x1="480" y1="70" x2="480" y2="128" stroke="#C7FFD3" stroke-opacity="0.88" stroke-width="2"/>
<line x1="532" y1="78" x2="532" y2="136" stroke="#C7FFD3" stroke-opacity="0.88" stroke-width="2"/>
<line x1="584" y1="119" x2="584" y2="177" stroke="#C7FFD3" stroke-opacity="0.88" stroke-width="2"/>
<line x1="636" y1="99" x2="636" y2="157" stroke="#C7FFD3" stroke-opacity="0.88" stroke-width="2"/>
<line x1="688" y1="142" x2="688" y2="200" stroke="#C7FFD3" stroke-opacity="0.88" stroke-width="2"/>
<defs>
<linearGradient id="paint0_linear_5587_33659" x1="11" y1="163" x2="11" y2="413" gradientUnits="userSpaceOnUse">
<stop stop-color="#C7FFD3" stop-opacity="0.47"/>
<stop offset="0.234375" stop-color="#C7FFD3" stop-opacity="0"/>
</linearGradient>
<linearGradient id="paint1_linear_5587_33659" x1="63" y1="41.9998" x2="63" y2="414" gradientUnits="userSpaceOnUse">
<stop stop-color="#C7FFD3" stop-opacity="0.47"/>
<stop offset="0.234375" stop-color="#C7FFD3" stop-opacity="0"/>
</linearGradient>
<linearGradient id="paint2_linear_5587_33659" x1="115" y1="85" x2="115" y2="393" gradientUnits="userSpaceOnUse">
<stop stop-color="#C7FFD3" stop-opacity="0.47"/>
<stop offset="0.234375" stop-color="#C7FFD3" stop-opacity="0"/>
</linearGradient>
<linearGradient id="paint3_linear_5587_33659" x1="167" y1="63" x2="167" y2="285" gradientUnits="userSpaceOnUse">
<stop stop-color="#C7FFD3" stop-opacity="0.47"/>
<stop offset="0.234375" stop-color="#C7FFD3" stop-opacity="0"/>
</linearGradient>
<linearGradient id="paint4_linear_5587_33659" x1="219" y1="93" x2="219" y2="323" gradientUnits="userSpaceOnUse">
<stop stop-color="#C7FFD3" stop-opacity="0.47"/>
<stop offset="0.234375" stop-color="#C7FFD3" stop-opacity="0"/>
</linearGradient>
<linearGradient id="paint5_linear_5587_33659" x1="271" y1="130" x2="271" y2="323" gradientUnits="userSpaceOnUse">
<stop stop-color="#C7FFD3" stop-opacity="0.47"/>
<stop offset="0.234375" stop-color="#C7FFD3" stop-opacity="0"/>
</linearGradient>
<linearGradient id="paint6_linear_5587_33659" x1="323" y1="169" x2="323" y2="455" gradientUnits="userSpaceOnUse">
<stop stop-color="#C7FFD3" stop-opacity="0.47"/>
<stop offset="0.234375" stop-color="#C7FFD3" stop-opacity="0"/>
</linearGradient>
<linearGradient id="paint7_linear_5587_33659" x1="375" y1="130" x2="375" y2="353" gradientUnits="userSpaceOnUse">
<stop stop-color="#C7FFD3" stop-opacity="0.47"/>
<stop offset="0.234375" stop-color="#C7FFD3" stop-opacity="0"/>
</linearGradient>
<linearGradient id="paint8_linear_5587_33659" x1="427" y1="160" x2="427" y2="393" gradientUnits="userSpaceOnUse">
<stop stop-color="#C7FFD3" stop-opacity="0.47"/>
<stop offset="0.234375" stop-color="#C7FFD3" stop-opacity="0"/>
</linearGradient>
<linearGradient id="paint9_linear_5587_33659" x1="479" y1="93" x2="479" y2="321" gradientUnits="userSpaceOnUse">
<stop stop-color="#C7FFD3" stop-opacity="0.47"/>
<stop offset="0.234375" stop-color="#C7FFD3" stop-opacity="0"/>
</linearGradient>
<linearGradient id="paint10_linear_5587_33659" x1="531" y1="99" x2="531" y2="414" gradientUnits="userSpaceOnUse">
<stop stop-color="#C7FFD3" stop-opacity="0.47"/>
<stop offset="0.234375" stop-color="#C7FFD3" stop-opacity="0"/>
</linearGradient>
<linearGradient id="paint11_linear_5587_33659" x1="583" y1="130" x2="583" y2="393" gradientUnits="userSpaceOnUse">
<stop stop-color="#C7FFD3" stop-opacity="0.47"/>
<stop offset="0.234375" stop-color="#C7FFD3" stop-opacity="0"/>
</linearGradient>
<linearGradient id="paint12_linear_5587_33659" x1="635" y1="121" x2="635" y2="308" gradientUnits="userSpaceOnUse">
<stop stop-color="#C7FFD3" stop-opacity="0.47"/>
<stop offset="0.234375" stop-color="#C7FFD3" stop-opacity="0"/>
</linearGradient>
<linearGradient id="paint13_linear_5587_33659" x1="687" y1="166" x2="687" y2="455" gradientUnits="userSpaceOnUse">
<stop stop-color="#C7FFD3" stop-opacity="0.47"/>
<stop offset="0.234375" stop-color="#C7FFD3" stop-opacity="0"/>
</linearGradient>
<linearGradient id="paint14_linear_5587_33659" x1="11" y1="183" x2="11" y2="433" gradientUnits="userSpaceOnUse">
<stop stop-color="#C7FFD3" stop-opacity="0.88"/>
<stop offset="0.932292" stop-color="#C7FFD3" stop-opacity="0"/>
</linearGradient>
<linearGradient id="paint15_linear_5587_33659" x1="63" y1="62" x2="63" y2="434" gradientUnits="userSpaceOnUse">
<stop stop-color="#C7FFD3" stop-opacity="0.88"/>
<stop offset="0.932292" stop-color="#C7FFD3" stop-opacity="0"/>
</linearGradient>
<linearGradient id="paint16_linear_5587_33659" x1="115" y1="105" x2="115" y2="413" gradientUnits="userSpaceOnUse">
<stop stop-color="#C7FFD3" stop-opacity="0.88"/>
<stop offset="0.932292" stop-color="#C7FFD3" stop-opacity="0"/>
</linearGradient>
<linearGradient id="paint17_linear_5587_33659" x1="167" y1="83" x2="167" y2="305" gradientUnits="userSpaceOnUse">
<stop stop-color="#C7FFD3" stop-opacity="0.88"/>
<stop offset="0.932292" stop-color="#C7FFD3" stop-opacity="0"/>
</linearGradient>
<linearGradient id="paint18_linear_5587_33659" x1="219" y1="113" x2="219" y2="343" gradientUnits="userSpaceOnUse">
<stop stop-color="#C7FFD3" stop-opacity="0.88"/>
<stop offset="0.932292" stop-color="#C7FFD3" stop-opacity="0"/>
</linearGradient>
<linearGradient id="paint19_linear_5587_33659" x1="271" y1="150" x2="271" y2="343" gradientUnits="userSpaceOnUse">
<stop stop-color="#C7FFD3" stop-opacity="0.88"/>
<stop offset="0.932292" stop-color="#C7FFD3" stop-opacity="0"/>
</linearGradient>
<linearGradient id="paint20_linear_5587_33659" x1="323" y1="189" x2="323" y2="475" gradientUnits="userSpaceOnUse">
<stop stop-color="#C7FFD3" stop-opacity="0.88"/>
<stop offset="0.932292" stop-color="#C7FFD3" stop-opacity="0"/>
</linearGradient>
<linearGradient id="paint21_linear_5587_33659" x1="375" y1="150" x2="375" y2="373" gradientUnits="userSpaceOnUse">
<stop stop-color="#C7FFD3" stop-opacity="0.88"/>
<stop offset="0.932292" stop-color="#C7FFD3" stop-opacity="0"/>
</linearGradient>
<linearGradient id="paint22_linear_5587_33659" x1="427" y1="180" x2="427" y2="413" gradientUnits="userSpaceOnUse">
<stop stop-color="#C7FFD3" stop-opacity="0.88"/>
<stop offset="0.932292" stop-color="#C7FFD3" stop-opacity="0"/>
</linearGradient>
<linearGradient id="paint23_linear_5587_33659" x1="479" y1="113" x2="479" y2="341" gradientUnits="userSpaceOnUse">
<stop stop-color="#C7FFD3" stop-opacity="0.88"/>
<stop offset="0.932292" stop-color="#C7FFD3" stop-opacity="0"/>
</linearGradient>
<linearGradient id="paint24_linear_5587_33659" x1="531" y1="119" x2="531" y2="434" gradientUnits="userSpaceOnUse">
<stop stop-color="#C7FFD3" stop-opacity="0.88"/>
<stop offset="0.932292" stop-color="#C7FFD3" stop-opacity="0"/>
</linearGradient>
<linearGradient id="paint25_linear_5587_33659" x1="583" y1="150" x2="583" y2="413" gradientUnits="userSpaceOnUse">
<stop stop-color="#C7FFD3" stop-opacity="0.88"/>
<stop offset="0.932292" stop-color="#C7FFD3" stop-opacity="0"/>
</linearGradient>
<linearGradient id="paint26_linear_5587_33659" x1="635" y1="141" x2="635" y2="328" gradientUnits="userSpaceOnUse">
<stop stop-color="#C7FFD3" stop-opacity="0.88"/>
<stop offset="0.932292" stop-color="#C7FFD3" stop-opacity="0"/>
</linearGradient>
<linearGradient id="paint27_linear_5587_33659" x1="687" y1="186" x2="687" y2="475" gradientUnits="userSpaceOnUse">
<stop stop-color="#C7FFD3" stop-opacity="0.88"/>
<stop offset="0.932292" stop-color="#C7FFD3" stop-opacity="0"/>
</linearGradient>
</defs>
</svg>
