<svg width="1110" height="276" viewBox="0 0 1110 276" fill="none" xmlns="http://www.w3.org/2000/svg">
<rect x="6.01855" y="203.008" width="33.203" height="272.86" fill="url(#paint0_linear_12354_4181)"/>
<rect x="84.499" y="160.944" width="33.203" height="406.016" fill="url(#paint1_linear_12354_4181)"/>
<rect x="162.979" y="207.875" width="33.203" height="336.164" fill="url(#paint2_linear_12354_4181)"/>
<rect x="241.459" y="183.864" width="33.203" height="242.3" fill="url(#paint3_linear_12354_4181)"/>
<rect x="319.938" y="216.607" width="33.203" height="251.031" fill="url(#paint4_linear_12354_4181)"/>
<rect x="398.418" y="166.99" width="33.203" height="210.648" fill="url(#paint5_linear_12354_4181)"/>
<rect x="476.897" y="209.557" width="33.203" height="312.152" fill="url(#paint6_linear_12354_4181)"/>
<rect x="555.378" y="166.99" width="33.203" height="243.391" fill="url(#paint7_linear_12354_4181)"/>
<rect x="633.857" y="199.733" width="33.203" height="254.306" fill="url(#paint8_linear_12354_4181)"/>
<rect x="712.338" y="126.607" width="33.203" height="248.848" fill="url(#paint9_linear_12354_4181)"/>
<rect x="790.817" y="133.156" width="33.203" height="343.804" fill="url(#paint10_linear_12354_4181)"/>
<rect x="869.297" y="166.99" width="33.203" height="287.049" fill="url(#paint11_linear_12354_4181)"/>
<rect x="947.776" y="157.167" width="33.203" height="204.099" fill="url(#paint12_linear_12354_4181)"/>
<rect x="1026.26" y="206.282" width="33.203" height="315.426" fill="url(#paint13_linear_12354_4181)"/>
<line x1="23.1206" y1="80.7666" x2="23.1206" y2="242.3" stroke="white" stroke-opacity="0.1"/>
<line x1="101.601" x2="101.601" y2="161.533" stroke="white" stroke-opacity="0.1"/>
<line x1="180.081" y1="48.0234" x2="180.081" y2="209.557" stroke="white" stroke-opacity="0.1"/>
<line x1="258.561" y1="27.2861" x2="258.561" y2="188.819" stroke="white" stroke-opacity="0.1"/>
<line x1="337.041" y1="6.54883" x2="337.041" y2="293.598" stroke="white" stroke-opacity="0.1"/>
<line x1="415.52" y1="8.73145" x2="415.52" y2="206.282" stroke="white" stroke-opacity="0.1"/>
<line x1="494" y1="70.9438" x2="494" y2="269.586" stroke="white" stroke-opacity="0.1"/>
<line x1="572.479" y1="50.2065" x2="572.479" y2="247.757" stroke="white" stroke-opacity="0.1"/>
<line x1="650.959" y1="86.2241" x2="650.959" y2="283.775" stroke="white" stroke-opacity="0.1"/>
<line x1="729.44" y1="25.103" x2="729.44" y2="186.636" stroke="white" stroke-opacity="0.1"/>
<line x1="807.919" y1="34.9263" x2="807.919" y2="196.459" stroke="white" stroke-opacity="0.1"/>
<line x1="886.399" y1="76.4009" x2="886.399" y2="237.934" stroke="white" stroke-opacity="0.1"/>
<line x1="964.878" y1="63.3037" x2="964.878" y2="224.837" stroke="white" stroke-opacity="0.1"/>
<line x1="1043.36" y1="99.3213" x2="1043.36" y2="260.854" stroke="white" stroke-opacity="0.1"/>
<line x1="23.6201" y1="174.631" x2="23.6201" y2="237.934" stroke="white" stroke-opacity="0.16" stroke-width="2"/>
<line x1="102.101" y1="214.572" x2="102.101" y2="277.875" stroke="white" stroke-opacity="0.16" stroke-width="2"/>
<line x1="180.58" y1="263.686" x2="180.58" y2="326.99" stroke="white" stroke-opacity="0.16" stroke-width="2"/>
<line x1="259.061" y1="223.303" x2="259.061" y2="286.607" stroke="white" stroke-opacity="0.16" stroke-width="2"/>
<line x1="337.54" y1="261.504" x2="337.54" y2="324.808" stroke="white" stroke-opacity="0.16" stroke-width="2"/>
<line x1="416.02" y1="148.436" x2="416.02" y2="211.739" stroke="white" stroke-opacity="0.16" stroke-width="2"/>
<line x1="494.499" y1="191.002" x2="494.499" y2="254.306" stroke="white" stroke-opacity="0.16" stroke-width="2"/>
<line x1="572.979" y1="159.351" x2="572.979" y2="222.654" stroke="white" stroke-opacity="0.16" stroke-width="2"/>
<line x1="651.459" y1="173.54" x2="651.459" y2="236.843" stroke="white" stroke-opacity="0.16" stroke-width="2"/>
<line x1="729.939" y1="101.504" x2="729.939" y2="164.808" stroke="white" stroke-opacity="0.16" stroke-width="2"/>
<line x1="808.419" y1="110.236" x2="808.419" y2="173.539" stroke="white" stroke-opacity="0.16" stroke-width="2"/>
<line x1="886.898" y1="154.985" x2="886.898" y2="218.288" stroke="white" stroke-opacity="0.16" stroke-width="2"/>
<line x1="965.378" y1="133.156" x2="965.378" y2="196.46" stroke="white" stroke-opacity="0.16" stroke-width="2"/>
<line x1="1043.86" y1="180.087" x2="1043.86" y2="243.391" stroke="white" stroke-opacity="0.16" stroke-width="2"/>
<g filter="url(#filter0_dd_12354_4181)">
<path d="M3 254.305C3 254.305 43.7601 165.353 83 165.353C122.24 165.353 136.76 264.128 176 264.128C215.24 264.128 217.76 173.817 257 176C296.24 178.183 429.357 264.128 474.634 264.128C519.91 264.128 513.119 197.55 555.377 197.55C597.636 197.55 592.353 273.951 631.593 273.951C670.833 273.951 673.097 165.353 712.337 165.353C751.577 165.352 814.965 218.287 867.033 218.287C919.101 218.287 907.782 188.273 950.04 188.273C992.299 188.273 983.998 266.856 1029.27 266.856C1074.55 266.856 1117 197.55 1117 197.55" stroke="white" stroke-opacity="0.03" stroke-width="3" stroke-linecap="round" shape-rendering="crispEdges"/>
</g>
<defs>
<filter id="filter0_dd_12354_4181" x="-22.5002" y="141.853" width="1165" height="159.598" filterUnits="userSpaceOnUse" color-interpolation-filters="sRGB">
<feFlood flood-opacity="0" result="BackgroundImageFix"/>
<feColorMatrix in="SourceAlpha" type="matrix" values="0 0 0 0 0 0 0 0 0 0 0 0 0 0 0 0 0 0 127 0" result="hardAlpha"/>
<feOffset dy="2"/>
<feGaussianBlur stdDeviation="12"/>
<feComposite in2="hardAlpha" operator="out"/>
<feColorMatrix type="matrix" values="0 0 0 0 1 0 0 0 0 1 0 0 0 0 1 0 0 0 0.66 0"/>
<feBlend mode="normal" in2="BackgroundImageFix" result="effect1_dropShadow_12354_4181"/>
<feColorMatrix in="SourceAlpha" type="matrix" values="0 0 0 0 0 0 0 0 0 0 0 0 0 0 0 0 0 0 127 0" result="hardAlpha"/>
<feOffset dy="2"/>
<feGaussianBlur stdDeviation="2"/>
<feComposite in2="hardAlpha" operator="out"/>
<feColorMatrix type="matrix" values="0 0 0 0 1 0 0 0 0 1 0 0 0 0 1 0 0 0 0.25 0"/>
<feBlend mode="normal" in2="effect1_dropShadow_12354_4181" result="effect2_dropShadow_12354_4181"/>
<feBlend mode="normal" in="SourceGraphic" in2="effect2_dropShadow_12354_4181" result="shape"/>
</filter>
<linearGradient id="paint0_linear_12354_4181" x1="22.6201" y1="203.008" x2="22.6201" y2="475.868" gradientUnits="userSpaceOnUse">
<stop stop-color="white" stop-opacity="0.17"/>
<stop offset="0.234375" stop-color="white" stop-opacity="0"/>
</linearGradient>
<linearGradient id="paint1_linear_12354_4181" x1="101.101" y1="160.944" x2="101.101" y2="566.96" gradientUnits="userSpaceOnUse">
<stop stop-color="white" stop-opacity="0.17"/>
<stop offset="0.234375" stop-color="white" stop-opacity="0"/>
</linearGradient>
<linearGradient id="paint2_linear_12354_4181" x1="179.58" y1="207.875" x2="179.58" y2="544.039" gradientUnits="userSpaceOnUse">
<stop stop-color="white" stop-opacity="0.17"/>
<stop offset="0.234375" stop-color="white" stop-opacity="0"/>
</linearGradient>
<linearGradient id="paint3_linear_12354_4181" x1="258.06" y1="183.864" x2="258.06" y2="426.164" gradientUnits="userSpaceOnUse">
<stop stop-color="white" stop-opacity="0.17"/>
<stop offset="0.234375" stop-color="white" stop-opacity="0"/>
</linearGradient>
<linearGradient id="paint4_linear_12354_4181" x1="336.54" y1="216.607" x2="336.54" y2="467.638" gradientUnits="userSpaceOnUse">
<stop stop-color="white" stop-opacity="0.17"/>
<stop offset="0.234375" stop-color="white" stop-opacity="0"/>
</linearGradient>
<linearGradient id="paint5_linear_12354_4181" x1="415.019" y1="166.99" x2="415.019" y2="377.638" gradientUnits="userSpaceOnUse">
<stop stop-color="white" stop-opacity="0.17"/>
<stop offset="0.234375" stop-color="white" stop-opacity="0"/>
</linearGradient>
<linearGradient id="paint6_linear_12354_4181" x1="493.499" y1="209.557" x2="493.499" y2="521.709" gradientUnits="userSpaceOnUse">
<stop stop-color="white" stop-opacity="0.17"/>
<stop offset="0.234375" stop-color="white" stop-opacity="0"/>
</linearGradient>
<linearGradient id="paint7_linear_12354_4181" x1="571.979" y1="166.99" x2="571.979" y2="410.381" gradientUnits="userSpaceOnUse">
<stop stop-color="white" stop-opacity="0.17"/>
<stop offset="0.234375" stop-color="white" stop-opacity="0"/>
</linearGradient>
<linearGradient id="paint8_linear_12354_4181" x1="650.459" y1="199.733" x2="650.459" y2="454.039" gradientUnits="userSpaceOnUse">
<stop stop-color="white" stop-opacity="0.17"/>
<stop offset="0.234375" stop-color="white" stop-opacity="0"/>
</linearGradient>
<linearGradient id="paint9_linear_12354_4181" x1="728.939" y1="126.607" x2="728.939" y2="375.455" gradientUnits="userSpaceOnUse">
<stop stop-color="white" stop-opacity="0.17"/>
<stop offset="0.234375" stop-color="white" stop-opacity="0"/>
</linearGradient>
<linearGradient id="paint10_linear_12354_4181" x1="807.419" y1="133.156" x2="807.419" y2="476.959" gradientUnits="userSpaceOnUse">
<stop stop-color="white" stop-opacity="0.17"/>
<stop offset="0.234375" stop-color="white" stop-opacity="0"/>
</linearGradient>
<linearGradient id="paint11_linear_12354_4181" x1="885.898" y1="166.99" x2="885.898" y2="454.039" gradientUnits="userSpaceOnUse">
<stop stop-color="white" stop-opacity="0.17"/>
<stop offset="0.234375" stop-color="white" stop-opacity="0"/>
</linearGradient>
<linearGradient id="paint12_linear_12354_4181" x1="964.378" y1="157.167" x2="964.378" y2="361.267" gradientUnits="userSpaceOnUse">
<stop stop-color="white" stop-opacity="0.17"/>
<stop offset="0.234375" stop-color="white" stop-opacity="0"/>
</linearGradient>
<linearGradient id="paint13_linear_12354_4181" x1="1042.86" y1="206.282" x2="1042.86" y2="521.708" gradientUnits="userSpaceOnUse">
<stop stop-color="white" stop-opacity="0.17"/>
<stop offset="0.234375" stop-color="white" stop-opacity="0"/>
</linearGradient>
</defs>
</svg>
